<svg width="511" height="121" viewBox="0 0 511 121" fill="none" xmlns="http://www.w3.org/2000/svg">
<path fill-rule="evenodd" clip-rule="evenodd" d="M91.5405 73.0347H14.6017C9.29021 73.0347 4.98438 77.8842 4.98438 83.8664C4.98438 89.8487 9.29021 94.6982 14.6017 94.6982H91.5405V89.2823C91.5362 89.2823 91.532 89.2823 91.5275 89.2823C89.1066 89.2823 87.1442 86.8575 87.1442 83.8664C87.1442 80.8753 89.1066 78.4506 91.5275 78.4506C91.532 78.4506 91.5362 78.4506 91.5405 78.4506V73.0347Z" fill="black"/>
<path fill-rule="evenodd" clip-rule="evenodd" d="M83.9592 78.4507H53.6891C51.0215 78.4507 48.8594 80.8755 48.8594 83.8666C48.8594 86.8577 51.0215 89.2825 53.6891 89.2825H83.9592C83.1371 87.6891 82.6668 85.8395 82.6668 83.8666C82.6668 81.8937 83.1371 80.044 83.9592 78.4507Z" fill="white"/>
<path fill-rule="evenodd" clip-rule="evenodd" d="M44.4709 78.4507H14.2008C11.5334 78.4507 9.37109 80.8755 9.37109 83.8666C9.37109 86.8577 11.5334 89.2825 14.2008 89.2825H44.4709C43.6488 87.6891 43.1785 85.8395 43.1785 83.8666C43.1785 81.8937 43.6488 80.044 44.4709 78.4507Z" fill="#FFD401"/>
<path fill-rule="evenodd" clip-rule="evenodd" d="M9.37109 47.5791H87.7763C93.189 47.5791 97.5769 53.2775 97.5769 60.3069C97.5769 67.3361 93.189 73.0347 87.7763 73.0347H9.37109V66.6708C9.37545 66.6708 9.3798 66.6708 9.38415 66.6708C11.8512 66.6708 13.8512 63.8215 13.8512 60.3069C13.8512 56.7923 11.8512 53.943 9.38415 53.943C9.3798 53.943 9.37545 53.943 9.37109 53.943V47.5791Z" fill="black"/>
<path fill-rule="evenodd" clip-rule="evenodd" d="M17.9375 53.9431H48.0615C50.7161 53.9431 52.8681 56.7924 52.8681 60.307C52.8681 63.8216 50.7161 66.6709 48.0615 66.6709H17.9375C18.7554 64.7988 19.2235 62.6254 19.2235 60.307C19.2235 57.9886 18.7554 55.8152 17.9375 53.9431Z" fill="white"/>
<path fill-rule="evenodd" clip-rule="evenodd" d="M57.3359 53.9431H86.8324C89.4315 53.9431 91.5386 56.7924 91.5386 60.307C91.5386 63.8216 89.4315 66.6709 86.8324 66.6709H57.3359C58.1369 64.7988 58.595 62.6254 58.595 60.307C58.595 57.9886 58.1369 55.8152 57.3359 53.9431Z" fill="#0194FF"/>
<path fill-rule="evenodd" clip-rule="evenodd" d="M20.918 47.5792H85.0958C89.5265 47.5792 93.1182 42.7925 93.1182 36.8879C93.1182 30.9832 89.5265 26.1965 85.0958 26.1965H20.918V31.5422C20.9215 31.5422 20.9251 31.5422 20.9286 31.5422C22.9481 31.5422 24.5851 33.9355 24.5851 36.8879C24.5851 39.8402 22.9481 42.2335 20.9286 42.2335C20.9251 42.2335 20.9215 42.2335 20.918 42.2335V47.5792Z" fill="black"/>
<path fill-rule="evenodd" clip-rule="evenodd" d="M27.5547 42.2333H52.5373C54.7387 42.2333 56.5232 39.84 56.5232 36.8877C56.5232 33.9353 54.7387 31.542 52.5373 31.542H27.5547C28.233 33.1145 28.6212 34.9403 28.6212 36.8877C28.6212 38.835 28.233 40.6608 27.5547 42.2333Z" fill="white"/>
<path fill-rule="evenodd" clip-rule="evenodd" d="M60.1816 42.2333H84.1074C86.2159 42.2333 87.9249 39.84 87.9249 36.8877C87.9249 33.9353 86.2159 31.542 84.1074 31.542H60.1816C60.8313 33.1145 61.203 34.9403 61.203 36.8877C61.203 38.835 60.8313 40.6608 60.1816 42.2333Z" fill="#FF0101"/>
<path d="M136.641 40.9141C135.141 40.9141 133.617 41.0547 132.07 41.3359C130.57 41.6172 129.07 41.9453 127.57 42.3203C126.07 42.6484 124.57 42.9531 123.07 43.2344C121.57 43.5156 120.047 43.6562 118.5 43.6562C118.031 43.6562 117.539 43.6094 117.023 43.5156C116.555 43.375 116.32 42.9531 116.32 42.25C116.32 41.7812 116.508 41.3125 116.883 40.8438C117.305 40.3281 117.75 40.0469 118.219 40L137.063 37.2578C137.109 37.0703 137.18 36.7891 137.273 36.4141C137.367 35.9922 137.484 35.5938 137.625 35.2188C137.813 34.7969 138.047 34.4453 138.328 34.1641C138.609 33.8359 138.938 33.6719 139.313 33.6719C139.875 33.6719 140.32 33.8125 140.648 34.0938C140.977 34.375 141.258 34.7031 141.492 35.0781C141.727 35.4062 141.938 35.7109 142.125 35.9922C142.313 36.2734 142.547 36.4141 142.828 36.4141H143.391C143.859 36.3672 144.609 36.2969 145.641 36.2031C146.672 36.0625 147.844 35.9219 149.156 35.7812C150.516 35.6406 151.945 35.5 153.445 35.3594C154.945 35.1719 156.375 35.0312 157.734 34.9375C159.094 34.7969 160.289 34.6797 161.32 34.5859C162.352 34.4453 163.102 34.3281 163.57 34.2344C163.711 34.2344 164.039 34.2344 164.555 34.2344C165.117 34.1875 165.516 34.1641 165.75 34.1641C165.75 35.0547 165.258 35.8047 164.273 36.4141C163.336 36.9766 162.117 37.4688 160.617 37.8906C159.164 38.2656 157.523 38.5703 155.695 38.8047C153.914 38.9922 152.156 39.1562 150.422 39.2969C148.734 39.4375 147.164 39.5547 145.711 39.6484C144.305 39.7422 143.227 39.8594 142.477 40C142.289 43.3281 142.359 46.7969 142.688 50.4062C143.063 54.0156 143.508 57.6484 144.023 61.3047C144.586 64.9609 145.102 68.5938 145.57 72.2031C146.039 75.8125 146.273 79.2578 146.273 82.5391C146.461 83.1953 146.531 83.7109 146.484 84.0859C146.484 84.4609 146.367 84.7188 146.133 84.8594C145.898 85 145.547 85.0703 145.078 85.0703C144.609 85.0703 144.047 85.0469 143.391 85C142.922 83.3125 142.5 81.3438 142.125 79.0938C141.797 76.7969 141.492 74.3594 141.211 71.7812C140.93 69.1562 140.648 66.4609 140.367 63.6953C140.133 60.9297 139.898 58.1875 139.664 55.4688C139.43 52.75 139.172 50.1484 138.891 47.6641C138.609 45.1797 138.281 42.9297 137.906 40.9141H136.641ZM178.055 76.8438C177.867 77.4062 177.398 78.1797 176.648 79.1641C175.945 80.1016 175.102 81.0625 174.117 82.0469C173.133 82.9844 172.102 83.8281 171.023 84.5781C169.992 85.2812 169.078 85.6328 168.281 85.6328C166.781 85.6328 165.539 84.9297 164.555 83.5234C163.617 82.1172 162.891 80.3125 162.375 78.1094C161.859 75.9062 161.508 73.4688 161.32 70.7969C161.133 68.0781 161.016 65.4297 160.969 62.8516C160.922 60.2734 160.898 57.9297 160.898 55.8203C160.898 53.7109 160.828 52.1172 160.688 51.0391C160.875 50.5703 161.109 50.2891 161.391 50.1953C161.719 50.1016 162.094 50.0547 162.516 50.0547C162.891 50.0547 163.219 50.1016 163.5 50.1953C163.828 50.2891 164.109 50.5703 164.344 51.0391C164.344 51.5547 164.344 52.4219 164.344 53.6406C164.391 54.8594 164.461 56.2422 164.555 57.7891C164.648 59.2891 164.742 60.8828 164.836 62.5703C164.93 64.2109 165 65.7812 165.047 67.2812C165.141 68.7812 165.211 70.1406 165.258 71.3594C165.352 72.5312 165.422 73.3984 165.469 73.9609C165.516 74.2891 165.563 74.8281 165.609 75.5781C165.703 76.3281 165.82 77.125 165.961 77.9688C166.148 78.7656 166.359 79.4922 166.594 80.1484C166.875 80.8047 167.227 81.1562 167.648 81.2031C168.352 81.2031 169.055 80.8984 169.758 80.2891C170.508 79.6797 171.234 78.9062 171.938 77.9688C172.641 77.0312 173.297 76 173.906 74.875C174.516 73.75 175.055 72.6719 175.523 71.6406C176.039 70.5625 176.414 69.6016 176.648 68.7578C176.93 67.9141 177.094 67.3047 177.141 66.9297C177.234 66.1328 177.328 65.0078 177.422 63.5547C177.516 62.0547 177.586 60.4609 177.633 58.7734C177.68 57.0859 177.703 55.4922 177.703 53.9922C177.75 52.4922 177.773 51.3438 177.773 50.5469L181.641 50.7578C181.688 54.5547 181.664 58 181.57 61.0938C181.477 64.1406 181.453 67.0234 181.5 69.7422C181.547 72.4141 181.758 75.0156 182.133 77.5469C182.508 80.0781 183.187 82.7031 184.172 85.4219C184.031 85.5625 183.75 85.75 183.328 85.9844C182.906 86.2656 182.602 86.4062 182.414 86.4062C181.242 86.4062 180.445 86.0078 180.023 85.2109C179.648 84.4609 179.391 83.5703 179.25 82.5391C179.156 81.4609 179.063 80.4062 178.969 79.375C178.922 78.2969 178.617 77.4531 178.055 76.8438ZM171.586 42.7422C170.32 42.4609 169.617 41.9688 169.477 41.2656C169.383 40.5625 169.641 39.7656 170.25 38.875C170.859 37.9375 171.703 36.9531 172.781 35.9219C173.859 34.8438 174.938 33.8125 176.016 32.8281C176.813 32.8281 177.352 33.0391 177.633 33.4609C177.914 33.8828 178.055 34.375 178.055 34.9375V35.4297C177.961 35.9922 177.68 36.6016 177.211 37.2578C176.742 37.9141 176.18 38.5703 175.523 39.2266C174.867 39.8828 174.164 40.5156 173.414 41.125C172.711 41.7344 172.102 42.2734 171.586 42.7422ZM189.586 81.4141C189.914 79.2578 190.125 76.5625 190.219 73.3281C190.359 70.0938 190.406 66.6484 190.359 62.9922C190.359 59.3359 190.289 55.5625 190.148 51.6719C190.008 47.7812 189.82 44.1016 189.586 40.6328C189.352 37.1172 189.07 33.9766 188.742 31.2109C188.461 28.4453 188.156 26.2656 187.828 24.6719C188.25 24.3906 188.602 24.1797 188.883 24.0391C189.211 23.8516 189.586 23.7578 190.008 23.7578C190.336 23.7578 190.617 23.8281 190.852 23.9688C191.086 24.0625 191.273 24.2969 191.414 24.6719C192.352 33.8594 192.984 43.1172 193.312 52.4453C193.688 61.7734 193.969 71.0547 194.156 80.2891C194.156 80.7109 194.156 81.2969 194.156 82.0469C194.156 82.75 194.133 83.125 194.086 83.1719C193.43 83.5 192.844 83.6641 192.328 83.6641C191.813 83.6172 191.344 83.4766 190.922 83.2422C190.5 82.9609 190.172 82.6562 189.938 82.3281C189.703 82 189.586 81.6953 189.586 81.4141ZM217.992 83.1719C217.758 81.9531 217.547 80.5 217.359 78.8125C217.219 77.0781 217.055 75.3438 216.867 73.6094C216.68 71.8281 216.445 70.1641 216.164 68.6172C215.93 67.0703 215.555 65.8047 215.039 64.8203C212.648 69.6953 210.539 73.5391 208.711 76.3516C206.883 79.1172 205.266 81.1094 203.859 82.3281C202.5 83.5 201.352 84.0625 200.414 84.0156C199.477 83.9688 198.703 83.5469 198.094 82.75C197.484 81.9531 197.039 80.9453 196.758 79.7266C196.523 78.4609 196.359 77.2891 196.266 76.2109C196.266 75.1797 196.5 73.7266 196.969 71.8516C197.438 69.9766 198.07 67.9375 198.867 65.7344C199.664 63.4844 200.602 61.2109 201.68 58.9141C202.805 56.6172 204 54.5312 205.266 52.6562C206.531 50.7812 207.844 49.2344 209.203 48.0156C210.563 46.7969 211.922 46.1875 213.281 46.1875C215.297 45.8594 216.773 46.3047 217.711 47.5234C218.695 48.6953 218.883 50.6875 218.273 53.5C218.273 56.5938 218.391 59.2422 218.625 61.4453C218.906 63.6484 219.188 65.7578 219.469 67.7734C219.797 69.7891 220.078 71.8984 220.312 74.1016C220.594 76.3047 220.734 78.9531 220.734 82.0469C220.734 82.6094 220.664 83.1016 220.523 83.5234C220.43 83.8984 219.867 84.0859 218.836 84.0859C218.695 84.0859 218.508 83.9688 218.273 83.7344C218.086 83.5 217.992 83.3125 217.992 83.1719ZM214.195 51.7422C213.68 50.9922 212.977 50.9219 212.086 51.5312C211.195 52.1406 210.258 53.1484 209.273 54.5547C208.289 55.9609 207.281 57.6484 206.25 59.6172C205.219 61.5859 204.258 63.5781 203.367 65.5938C202.477 67.6094 201.703 69.5312 201.047 71.3594C200.391 73.1406 199.945 74.6172 199.711 75.7891C199.711 77.4766 199.969 78.4375 200.484 78.6719C201 78.8594 201.633 78.5781 202.383 77.8281C203.133 77.0781 203.977 76 204.914 74.5938C205.898 73.1875 206.836 71.6875 207.727 70.0938C208.664 68.5 209.531 66.9531 210.328 65.4531C211.172 63.9531 211.828 62.7344 212.297 61.7969C212.719 60.8125 213.047 59.8984 213.281 59.0547C213.516 58.2109 213.703 57.4141 213.844 56.6641C214.031 55.8672 214.125 55.0703 214.125 54.2734C214.172 53.4766 214.195 52.6328 214.195 51.7422ZM223.477 56.2422C223.477 56.1953 223.453 56.125 223.406 56.0312C223.406 55.8906 223.406 55.7969 223.406 55.75C223.406 55.0469 223.688 54.6484 224.25 54.5547C224.812 54.4141 225.328 54.3438 225.797 54.3438C226.312 54.3438 226.898 54.7891 227.555 55.6797C228.211 56.5234 228.938 57.6719 229.734 59.125C230.578 60.5312 231.422 62.0781 232.266 63.7656C233.156 65.4531 234.047 67.1172 234.938 68.7578C235.875 70.3516 236.812 71.8047 237.75 73.1172C238.734 74.4297 239.672 75.3906 240.562 76C240.844 71.7344 241.055 68.1016 241.195 65.1016C241.336 62.1016 241.43 59.5703 241.477 57.5078C241.57 55.4453 241.617 53.8281 241.617 52.6562C241.617 51.4375 241.594 50.5 241.547 49.8438C241.547 49.1875 241.523 48.7656 241.477 48.5781C241.477 48.3438 241.477 48.1797 241.477 48.0859C241.477 47.2422 241.617 46.7266 241.898 46.5391C242.227 46.3516 242.648 46.2578 243.164 46.2578C243.773 46.2578 244.406 46.3516 245.062 46.5391C245.719 46.7266 246.047 47.1953 246.047 47.9453C246.188 50.9922 246.188 54.0859 246.047 57.2266C245.953 60.3203 245.789 63.4141 245.555 66.5078C245.32 69.5547 245.133 72.5547 244.992 75.5078C244.852 78.4609 244.852 81.3203 244.992 84.0859C244.898 84.1797 244.688 84.2969 244.359 84.4375C244.031 84.5312 243.68 84.625 243.305 84.7188C242.93 84.8125 242.555 84.8828 242.18 84.9297C241.852 84.9766 241.617 85 241.477 85C241.008 84.9062 240.281 84.2734 239.297 83.1016C238.312 81.8828 237.211 80.3594 235.992 78.5312C234.773 76.7031 233.508 74.6641 232.195 72.4141C230.883 70.1641 229.617 67.9844 228.398 65.875C227.227 63.7656 226.195 61.8438 225.305 60.1094C224.414 58.375 223.805 57.0859 223.477 56.2422ZM251.953 69.8125C251.719 69.8594 251.367 69.9297 250.898 70.0234C250.43 70.1172 249.938 70.1406 249.422 70.0938C248.906 70.0469 248.461 69.9062 248.086 69.6719C247.664 69.4375 247.453 69.0391 247.453 68.4766C247.453 68.1484 247.523 67.9141 247.664 67.7734C247.805 67.6328 248.039 67.4219 248.367 67.1406C249.398 66.2969 250.266 65.2188 250.969 63.9062C251.719 62.5469 252.398 61.1172 253.008 59.6172C253.617 58.0703 254.25 56.5469 254.906 55.0469C255.609 53.5 256.406 52.1172 257.297 50.8984C258.188 49.6797 259.289 48.6953 260.602 47.9453C261.914 47.1953 263.531 46.8438 265.453 46.8906C266.25 46.8906 267.141 47.0781 268.125 47.4531C269.109 47.8281 270.023 48.3438 270.867 49C271.711 49.6094 272.414 50.3594 272.977 51.25C273.539 52.1406 273.82 53.125 273.82 54.2031C274.055 54.5781 273.82 55.1172 273.117 55.8203C272.461 56.5234 271.547 57.2969 270.375 58.1406C269.203 58.9375 267.867 59.7812 266.367 60.6719C264.914 61.5156 263.508 62.3125 262.148 63.0625C260.789 63.8125 259.594 64.4688 258.562 65.0312C257.531 65.5938 256.852 66.0156 256.523 66.2969C256.289 66.7656 256.102 67.3047 255.961 67.9141C255.82 68.5234 255.703 69.1094 255.609 69.6719C255.562 70.1875 255.516 70.6797 255.469 71.1484C255.469 71.5703 255.469 71.8984 255.469 72.1328C255.469 73.0234 255.422 74.0078 255.328 75.0859C255.281 76.1641 255.328 77.1953 255.469 78.1797C255.656 79.1172 256.055 79.9141 256.664 80.5703C257.273 81.1797 258.305 81.4844 259.758 81.4844C261.305 81.4844 262.758 81.1094 264.117 80.3594C265.477 79.5625 266.742 78.6016 267.914 77.4766C269.086 76.3516 270.141 75.1328 271.078 73.8203C272.062 72.5078 272.93 71.2891 273.68 70.1641C274.477 68.9922 275.18 68.0312 275.789 67.2812C276.398 66.5312 276.914 66.1562 277.336 66.1562C277.805 66.1562 278.297 66.25 278.812 66.4375C279.375 66.5781 279.656 66.9531 279.656 67.5625C279.656 68.4062 279.305 69.4141 278.602 70.5859C277.945 71.7578 277.055 73 275.93 74.3125C274.852 75.625 273.586 76.9375 272.133 78.25C270.727 79.5156 269.297 80.6641 267.844 81.6953C266.391 82.6797 264.961 83.5 263.555 84.1562C262.148 84.7656 260.906 85.0703 259.828 85.0703C257.719 85.0703 256.125 84.5547 255.047 83.5234C253.969 82.4922 253.195 81.2031 252.727 79.6562C252.305 78.1094 252.07 76.4688 252.023 74.7344C252.023 72.9531 252 71.3125 251.953 69.8125ZM264.891 50.8281C264.094 50.8281 263.25 51.2266 262.359 52.0234C261.469 52.7734 260.625 53.7109 259.828 54.8359C259.078 55.9141 258.445 57.0391 257.93 58.2109C257.461 59.3359 257.227 60.2734 257.227 61.0234C257.93 61.0234 258.938 60.7656 260.25 60.25C261.609 59.6875 262.945 59.0078 264.258 58.2109C265.57 57.4141 266.719 56.5703 267.703 55.6797C268.688 54.7891 269.18 53.9453 269.18 53.1484C269.18 52.7266 269.016 52.375 268.688 52.0938C268.359 51.8125 267.961 51.5781 267.492 51.3906C267.07 51.2031 266.625 51.0625 266.156 50.9688C265.688 50.875 265.266 50.8281 264.891 50.8281ZM263.977 42.7422C262.711 42.4609 262.008 41.9688 261.867 41.2656C261.773 40.5625 262.031 39.7656 262.641 38.875C263.25 37.9375 264.094 36.9531 265.172 35.9219C266.25 34.8438 267.328 33.8125 268.406 32.8281C269.203 32.8281 269.742 33.0391 270.023 33.4609C270.305 33.8828 270.445 34.375 270.445 34.9375V35.4297C270.352 35.9922 270.07 36.6016 269.602 37.2578C269.133 37.9141 268.57 38.5703 267.914 39.2266C267.258 39.8828 266.555 40.5156 265.805 41.125C265.102 41.7344 264.492 42.2734 263.977 42.7422ZM317.625 31C318.609 30.0625 319.383 29.6875 319.945 29.875C320.555 30.0625 321 30.6953 321.281 31.7734C321.562 32.8516 321.727 34.2578 321.773 35.9922C321.82 37.7266 321.797 39.6953 321.703 41.8984C321.656 44.0547 321.539 46.3516 321.352 48.7891C321.164 51.1797 321 53.5469 320.859 55.8906C320.719 58.1875 320.625 60.3906 320.578 62.5C320.531 64.6094 320.602 66.4375 320.789 67.9844H321C321.094 67.9844 321.164 67.9609 321.211 67.9141C323.648 65.4766 325.828 62.8984 327.75 60.1797C329.672 57.4609 331.406 54.9062 332.953 52.5156C334.5 50.0781 335.859 47.9688 337.031 46.1875C338.25 44.4062 339.375 43.1875 340.406 42.5312C341.109 42.5312 341.695 42.6484 342.164 42.8828C342.68 43.1172 342.938 43.6562 342.938 44.5C342.938 44.5938 342.914 44.7578 342.867 44.9922C342.867 45.1797 342.867 45.3203 342.867 45.4141C341.695 47.8047 340.406 50.2188 339 52.6562C337.594 55.0469 336.07 57.3672 334.43 59.6172C332.789 61.8672 331.008 64 329.086 66.0156C327.211 68.0312 325.172 69.8594 322.969 71.5C322.969 71.5469 322.945 71.6406 322.898 71.7812C322.898 71.875 322.898 71.9453 322.898 71.9922C322.898 72.4609 323.273 72.9766 324.023 73.5391C324.82 74.1016 325.805 74.6406 326.977 75.1562C328.195 75.6719 329.531 76.1875 330.984 76.7031C332.484 77.2188 333.938 77.6641 335.344 78.0391C336.797 78.4141 338.133 78.7188 339.352 78.9531C340.617 79.1875 341.602 79.3047 342.305 79.3047C342.305 79.4922 342.305 79.8438 342.305 80.3594C342.352 80.875 342.328 81.4141 342.234 81.9766C342.141 82.5391 341.977 83.0547 341.742 83.5234C341.508 83.9453 341.133 84.1562 340.617 84.1562H340.336C340.242 84.1562 340.172 84.1328 340.125 84.0859L320.016 76C319.969 78.7656 319.781 81.0156 319.453 82.75C319.125 84.4375 318.727 85.6797 318.258 86.4766C317.836 87.3203 317.367 87.7188 316.852 87.6719C316.383 87.625 315.961 87.25 315.586 86.5469L317.625 31ZM349.406 84.0859C348.891 77.7578 348.422 71.4297 348 65.1016C347.625 58.7266 347.203 52.1172 346.734 45.2734C346.734 44.1484 347.344 43.5859 348.562 43.5859H349.125C349.266 43.5859 349.43 43.7734 349.617 44.1484C349.805 44.5234 349.992 45.2266 350.18 46.2578C350.414 47.2422 350.648 48.7656 350.883 50.8281C351.164 52.8438 351.492 55.4922 351.867 58.7734C352.242 62.0547 352.664 66.1562 353.133 71.0781C354.117 67.8906 354.891 64.7969 355.453 61.7969C356.016 58.7969 356.742 56.0781 357.633 53.6406C358.523 51.1562 359.766 48.9766 361.359 47.1016C363 45.2266 365.344 43.8438 368.391 42.9531C370.078 43.2344 371.438 44.2656 372.469 46.0469C373.5 47.7812 374.32 49.9375 374.93 52.5156C375.539 55.0938 375.961 57.9062 376.195 60.9531C376.43 63.9531 376.57 66.8359 376.617 69.6016C376.664 72.3672 376.688 74.8516 376.688 77.0547C376.688 79.2109 376.734 80.7578 376.828 81.6953C376.688 82.0703 376.477 82.3984 376.195 82.6797C375.914 82.9609 375.586 83.1719 375.211 83.3125C374.883 83.4062 374.555 83.4297 374.227 83.3828C373.898 83.2891 373.594 83.0312 373.312 82.6094C373.312 82.0938 373.266 81.0391 373.172 79.4453C373.078 77.8516 372.961 76 372.82 73.8906C372.68 71.7344 372.516 69.4609 372.328 67.0703C372.188 64.6328 372.047 62.3594 371.906 60.25C371.812 58.0938 371.719 56.2188 371.625 54.625C371.531 53.0312 371.461 51.9766 371.414 51.4609C370.43 49.7266 369.445 48.7422 368.461 48.5078C367.523 48.2734 366.562 48.5781 365.578 49.4219C364.641 50.2656 363.727 51.5547 362.836 53.2891C361.945 55.0234 361.102 56.9922 360.305 59.1953C359.508 61.3516 358.758 63.625 358.055 66.0156C357.352 68.4062 356.742 70.7266 356.227 72.9766C355.711 75.1797 355.266 77.1953 354.891 79.0234C354.562 80.8047 354.352 82.1875 354.258 83.1719C354.117 83.5 353.812 83.8281 353.344 84.1562C352.922 84.4375 352.453 84.6484 351.938 84.7891C351.469 84.9297 350.977 84.9766 350.461 84.9297C349.992 84.8359 349.641 84.5547 349.406 84.0859ZM382.383 83.5938C382.383 80.5469 382.312 77.3359 382.172 73.9609C382.078 70.5859 381.961 67.1875 381.82 63.7656C381.727 60.2969 381.703 56.8984 381.75 53.5703C381.797 50.2422 382.008 47.125 382.383 44.2188C382.477 44.1719 382.688 44.1484 383.016 44.1484C383.391 44.1016 383.648 44.0781 383.789 44.0781C384.445 44.0781 384.961 44.1953 385.336 44.4297C385.758 44.6172 385.969 45.0625 385.969 45.7656C385.969 48.5312 385.945 51.5547 385.898 54.8359C385.898 58.0703 385.875 61.375 385.828 64.75C385.828 68.0781 385.828 71.3828 385.828 74.6641C385.828 77.9453 385.875 80.9219 385.969 83.5938C386.016 84.3906 385.852 84.9062 385.477 85.1406C385.148 85.4219 384.727 85.5625 384.211 85.5625C383.648 85.5625 383.18 85.4219 382.805 85.1406C382.43 84.9062 382.289 84.3906 382.383 83.5938ZM380.836 33.25C380.836 32.6875 381.023 32.3125 381.398 32.125C381.773 31.9375 382.195 31.8438 382.664 31.8438C383.602 31.8438 384.188 32.1484 384.422 32.7578C384.656 33.3672 384.773 34.0703 384.773 34.8672C384.492 35.3828 384.141 35.7578 383.719 35.9922C383.297 36.1797 382.852 36.2266 382.383 36.1328C381.961 35.9922 381.586 35.6875 381.258 35.2188C380.977 34.75 380.836 34.0938 380.836 33.25ZM400.383 85.7031C400.148 84.625 400.219 83.2422 400.594 81.5547C401.016 79.8203 401.602 77.9453 402.352 75.9297C403.102 73.9141 403.969 71.8281 404.953 69.6719C405.984 67.5156 406.969 65.4766 407.906 63.5547C408.891 61.5859 409.758 59.8047 410.508 58.2109C411.258 56.6172 411.773 55.3516 412.055 54.4141C412.055 54.3672 412.055 54.3203 412.055 54.2734C412.102 54.1797 412.125 54.0859 412.125 53.9922C412.125 53.8984 412.102 53.8047 412.055 53.7109C412.055 53.6172 412.055 53.5469 412.055 53.5C410.742 54.0156 409.289 54.6016 407.695 55.2578C406.148 55.8672 404.578 56.4766 402.984 57.0859C401.391 57.6484 399.82 58.1875 398.273 58.7031C396.773 59.1719 395.391 59.5469 394.125 59.8281C393.938 59.9688 393.609 59.9219 393.141 59.6875C392.672 59.4531 392.227 59.1484 391.805 58.7734C391.383 58.3516 391.078 57.9297 390.891 57.5078C390.75 57.0391 390.914 56.6172 391.383 56.2422C392.93 56.2422 394.758 55.9375 396.867 55.3281C398.977 54.6719 401.109 53.9219 403.266 53.0781C405.469 52.2344 407.602 51.4141 409.664 50.6172C411.773 49.7734 413.625 49.1875 415.219 48.8594C416.766 48.8594 417.539 49.6328 417.539 51.1797C417.539 52.8672 417.234 54.5312 416.625 56.1719C416.062 57.7656 415.336 59.3359 414.445 60.8828C413.602 62.4297 412.664 63.9531 411.633 65.4531C410.648 66.9531 409.711 68.4766 408.82 70.0234C407.977 71.5703 407.25 73.1406 406.641 74.7344C406.031 76.3281 405.727 77.9688 405.727 79.6562V80.5L431.461 75.2266H431.953C432.609 75.2266 433.195 75.4375 433.711 75.8594C434.273 76.2344 434.672 76.6797 434.906 77.1953C435.188 77.6641 435.211 78.1562 434.977 78.6719C434.742 79.1875 434.156 79.5625 433.219 79.7969C433.031 79.7969 432.82 79.8203 432.586 79.8672C432.398 79.9141 431.953 80.0078 431.25 80.1484C430.594 80.2422 429.609 80.4062 428.297 80.6406C426.984 80.8281 425.133 81.1328 422.742 81.5547C420.398 81.9766 417.398 82.5391 413.742 83.2422C410.133 83.8984 405.68 84.7188 400.383 85.7031ZM397.359 33.3906C397.359 33.2031 397.453 33.0391 397.641 32.8984C397.828 32.7578 398.32 32.6875 399.117 32.6875C399.211 32.6875 399.352 32.7344 399.539 32.8281C399.773 32.9219 399.938 33.0156 400.031 33.1094L407.695 42.6719H407.977C408.633 42.6719 409.078 42.5547 409.312 42.3203L418.664 33.7422H419.086C419.93 33.7422 420.516 33.9531 420.844 34.375C421.172 34.7969 421.336 35.1719 421.336 35.5C421.336 35.8281 421.242 36.0859 421.055 36.2734C420.914 36.4141 420.398 36.5781 419.508 36.7656L408.469 45.9766C408.422 45.9766 408.352 46 408.258 46.0469C408.211 46.0469 408.164 46.0469 408.117 46.0469C407.648 46.0469 407.18 45.9531 406.711 45.7656C406.289 45.5781 406.031 45.4141 405.938 45.2734L397.43 33.7422C397.383 33.6953 397.359 33.6484 397.359 33.6016V33.3906ZM437.367 31C438.352 30.0625 439.125 29.6875 439.688 29.875C440.297 30.0625 440.742 30.6953 441.023 31.7734C441.305 32.8516 441.469 34.2578 441.516 35.9922C441.562 37.7266 441.539 39.6953 441.445 41.8984C441.398 44.0547 441.281 46.3516 441.094 48.7891C440.906 51.1797 440.742 53.5469 440.602 55.8906C440.461 58.1875 440.367 60.3906 440.32 62.5C440.273 64.6094 440.344 66.4375 440.531 67.9844H440.742C440.836 67.9844 440.906 67.9609 440.953 67.9141C443.391 65.4766 445.57 62.8984 447.492 60.1797C449.414 57.4609 451.148 54.9062 452.695 52.5156C454.242 50.0781 455.602 47.9688 456.773 46.1875C457.992 44.4062 459.117 43.1875 460.148 42.5312C460.852 42.5312 461.438 42.6484 461.906 42.8828C462.422 43.1172 462.68 43.6562 462.68 44.5C462.68 44.5938 462.656 44.7578 462.609 44.9922C462.609 45.1797 462.609 45.3203 462.609 45.4141C461.438 47.8047 460.148 50.2188 458.742 52.6562C457.336 55.0469 455.812 57.3672 454.172 59.6172C452.531 61.8672 450.75 64 448.828 66.0156C446.953 68.0312 444.914 69.8594 442.711 71.5C442.711 71.5469 442.688 71.6406 442.641 71.7812C442.641 71.875 442.641 71.9453 442.641 71.9922C442.641 72.4609 443.016 72.9766 443.766 73.5391C444.562 74.1016 445.547 74.6406 446.719 75.1562C447.938 75.6719 449.273 76.1875 450.727 76.7031C452.227 77.2188 453.68 77.6641 455.086 78.0391C456.539 78.4141 457.875 78.7188 459.094 78.9531C460.359 79.1875 461.344 79.3047 462.047 79.3047C462.047 79.4922 462.047 79.8438 462.047 80.3594C462.094 80.875 462.07 81.4141 461.977 81.9766C461.883 82.5391 461.719 83.0547 461.484 83.5234C461.25 83.9453 460.875 84.1562 460.359 84.1562H460.078C459.984 84.1562 459.914 84.1328 459.867 84.0859L439.758 76C439.711 78.7656 439.523 81.0156 439.195 82.75C438.867 84.4375 438.469 85.6797 438 86.4766C437.578 87.3203 437.109 87.7188 436.594 87.6719C436.125 87.625 435.703 87.25 435.328 86.5469L437.367 31ZM484.266 84.7188L466.125 55.6797C466.078 55.6328 466.031 55.4688 465.984 55.1875C465.938 54.8594 465.914 54.6016 465.914 54.4141C465.914 53.8047 466.008 53.2891 466.195 52.8672C466.43 52.3984 466.992 52.1641 467.883 52.1641C468.07 52.1641 468.398 52.2812 468.867 52.5156C469.336 52.7031 469.617 52.8906 469.711 53.0781C470.742 54.7188 471.797 56.5469 472.875 58.5625C474 60.5781 475.148 62.5938 476.32 64.6094C477.539 66.625 478.805 68.5703 480.117 70.4453C481.43 72.2734 482.812 73.8438 484.266 75.1562L485.953 47.5938C486 47.5938 486.117 47.5938 486.305 47.5938C486.539 47.5469 486.703 47.5234 486.797 47.5234C487.219 47.5234 487.641 47.5938 488.062 47.7344C488.484 47.8281 488.789 48.1328 488.977 48.6484C489.023 50.3359 489.023 52.4219 488.977 54.9062C488.977 57.3906 488.93 59.9453 488.836 62.5703C488.789 65.1953 488.719 67.7266 488.625 70.1641C488.578 72.5547 488.531 74.4766 488.484 75.9297C488.438 76.8672 488.344 78.2734 488.203 80.1484C488.109 82.0234 487.969 84.1328 487.781 86.4766C487.641 88.8672 487.453 91.375 487.219 94C487.031 96.625 486.844 99.1094 486.656 101.453C486.469 103.797 486.305 105.906 486.164 107.781C486.023 109.703 485.906 111.086 485.812 111.93H482.156L484.266 84.7188Z" fill="black"/>
</svg>
