<?xml version="1.0" standalone="no"?>
<!DOCTYPE svg PUBLIC "-//W3C//DTD SVG 20010904//EN"
 "http://www.w3.org/TR/2001/REC-SVG-20010904/DTD/svg10.dtd">
<svg version="1.0" xmlns="http://www.w3.org/2000/svg"
 width="512.000000pt" height="512.000000pt" viewBox="0 0 512.000000 512.000000"
 preserveAspectRatio="xMidYMid meet">
<metadata>
Created by potrace 1.11, written by Peter Selinger 2001-2013
</metadata>
<g transform="translate(0.000000,512.000000) scale(0.100000,-0.100000)"
fill="#000000" stroke="none">
<path d="M0 2560 l0 -2560 2560 0 2560 0 0 2560 0 2560 -2560 0 -2560 0 0
-2560z m3946 1324 c60 -32 96 -65 134 -124 42 -66 53 -126 40 -224 -15 -113
-80 -397 -140 -611 -60 -217 -203 -763 -225 -860 -9 -38 -23 -119 -30 -180 -8
-60 -21 -135 -30 -165 -9 -30 -20 -129 -25 -220 -7 -111 -17 -187 -30 -232
-23 -76 -76 -153 -106 -153 -11 0 -36 -9 -56 -19 -71 -38 -156 6 -178 91 -16
65 -21 204 -9 283 12 84 74 347 264 1120 84 344 156 641 160 660 5 30 4 32 -6
15 -53 -89 -257 -457 -370 -667 -75 -141 -151 -276 -167 -300 -16 -24 -53 -89
-81 -146 -29 -58 -91 -155 -144 -225 -51 -67 -107 -143 -125 -170 -43 -62
-169 -187 -273 -272 -103 -83 -187 -125 -250 -125 -97 0 -206 89 -245 200 -47
135 -20 360 100 845 46 187 100 397 120 467 36 127 44 188 27 188 -23 0 -248
-415 -389 -715 -87 -185 -190 -377 -435 -815 -139 -248 -229 -401 -263 -447
-22 -29 -27 -31 -54 -21 -16 5 -50 32 -75 60 -72 80 -92 184 -59 299 19 66 88
198 153 293 57 85 81 129 81 152 0 9 17 44 39 78 21 34 53 90 71 126 18 36 75
137 127 225 53 88 174 302 270 475 282 507 290 522 338 590 25 36 60 97 79
135 52 110 133 241 175 285 48 50 81 52 163 8 96 -51 161 -147 179 -263 17
-109 -25 -353 -196 -1121 -106 -483 -119 -584 -74 -584 22 0 84 80 223 290
224 337 343 534 674 1112 56 97 126 214 155 260 29 46 86 136 126 201 124 199
153 227 237 227 36 0 66 -8 100 -26z"/>
</g>
</svg>
