<svg width="193" height="160" viewBox="0 0 193 160" fill="none" xmlns="http://www.w3.org/2000/svg">
<rect width="193" height="160" fill="white"/>
<g clip-path="url(#clip0)">
<path d="M69.6774 72.258L64.6194 57.0576L58.3228 59.4316C54.2704 60.9286 51.6129 64.7744 51.6129 69.0838V79.9999H108.387V69.0838C108.387 64.7744 105.73 60.9286 101.677 59.4316L95.3805 57.0576L90.3226 72.258L80 67.0967L69.6774 72.258Z" fill="#30E7B6"/>
<path d="M64.6195 57.0578L69.6774 72.2581L80 67.0968L72.2581 54.1936L64.6195 57.0578Z" fill="white"/>
<path d="M87.7419 54.1936L79.9999 67.0968L90.3225 72.2581L95.3805 57.0578L87.7419 54.1936Z" fill="white"/>
<path d="M80 51.6131C78.3997 51.6131 76.8775 51.3296 72.2581 49.0325V54.1938L80 67.097L87.7419 54.1938V49.0325C85.5998 50.658 82.9158 51.6131 80 51.6131Z" fill="#FCCD8A"/>
<path d="M59.3549 33.5486C59.3549 37.8328 62.8125 41.2905 67.0968 41.2905L67.3551 41.2653C67.1737 40.4387 67.0968 39.5869 67.0968 38.7099V25.8066C64.9546 25.8066 63.0192 26.6837 61.6255 28.0773C60.2319 29.471 59.3549 31.4064 59.3549 33.5486Z" fill="#FCCD8A"/>
<path d="M67.0967 25.8066V38.7098C67.0967 39.5868 67.1736 40.4386 67.355 41.2652C67.8452 43.7942 69.1091 46.0649 70.8644 47.8454C71.3029 48.2839 71.7679 48.6707 72.258 49.0324C76.8775 51.3295 78.3997 51.613 80 51.613C82.9158 51.613 85.5998 50.6579 87.7419 49.0324C90.2192 47.1485 92.0262 44.4129 92.6449 41.2652C92.8263 40.4386 92.9032 39.5868 92.9032 38.7098V25.8066H92.4647C87.7936 25.8066 83.3026 23.9479 80 20.6453C76.6973 23.9479 72.2064 25.8066 67.5352 25.8066H67.0967Z" fill="#FCCD8A"/>
<path d="M92.9032 38.7099C92.9032 39.5869 92.8263 40.4387 92.6449 41.2653L92.9032 41.2905C95.0453 41.2905 96.9808 40.4135 98.3745 39.0198C99.7681 37.6262 100.645 35.6907 100.645 33.5486C100.645 29.2643 97.1875 25.8066 92.9032 25.8066V38.7099Z" fill="#FCCD8A"/>
<path d="M59.3548 23.2257V33.5483C59.3548 31.4062 60.2318 29.4707 61.6255 28.077C63.0191 26.6834 64.9546 25.8064 67.0968 25.8064H67.5353C72.2064 25.8064 76.6973 23.9478 80 20.6451C83.3027 23.9478 87.7936 25.8064 92.4647 25.8064H92.9032C97.1875 25.8064 100.645 29.264 100.645 33.5483V23.2257C100.645 17.5226 98.3228 12.3613 94.6068 8.61887C90.8644 4.9029 85.7031 2.58057 80 2.58057C68.5937 2.58057 59.3548 11.8195 59.3548 23.2257Z" fill="black"/>
<path d="M2.58069 116.129V131.613L9.39394 133.342C9.72913 134.27 10.116 135.174 10.5293 136.077L6.94183 142.116L17.8844 153.058L23.9227 149.471C24.8262 149.884 25.7296 150.271 26.6583 150.606L28.3871 157.419H43.871L45.5999 150.606C46.5285 150.271 47.432 149.884 48.3355 149.471L54.3738 153.058L65.3163 142.116L61.7289 136.077C62.1422 135.174 62.529 134.27 62.8642 133.342L69.6775 131.613V116.129L62.8642 114.4C62.529 113.471 62.1422 112.568 61.7289 111.665L65.3163 105.626L54.3738 94.6837L48.3355 98.2711C47.432 97.8578 46.5285 97.471 45.5999 97.1358L43.871 90.3225H28.3871L26.6583 97.1358C25.7296 97.471 24.8262 97.8578 23.9227 98.2711L17.8844 94.6837L6.94183 105.626L10.5293 111.665C10.116 112.568 9.72913 113.471 9.39394 114.4L2.58069 116.129ZM18.0646 123.871C18.0646 113.884 26.1417 105.806 36.1291 105.806C46.1165 105.806 54.1936 113.884 54.1936 123.871C54.1936 133.858 46.1165 141.935 36.1291 141.935C26.1417 141.935 18.0646 133.858 18.0646 123.871Z" fill="#FCCD8A"/>
<path d="M36.1291 105.806C26.1417 105.806 18.0646 113.884 18.0646 123.871C18.0646 133.858 26.1417 141.935 36.1291 141.935C46.1165 141.935 54.1936 133.858 54.1936 123.871C54.1936 113.884 46.1165 105.806 36.1291 105.806ZM28.3871 123.871C28.3871 119.587 31.8448 116.129 36.1291 116.129C40.4134 116.129 43.871 119.587 43.871 123.871C43.871 128.155 40.4134 131.613 36.1291 131.613C31.8448 131.613 28.3871 128.155 28.3871 123.871Z" fill="#FCCD8A"/>
<path d="M157.419 95.4839H110.968V157.419H157.419V95.4839Z" fill="white"/>
<path d="M-5.72205e-06 133.615V114.124L7.46597 112.216C7.51764 112.09 7.5693 111.964 7.62348 111.84L3.69329 105.215L17.4761 91.4327L24.1003 95.3629C24.2276 95.3087 24.3536 95.2571 24.4771 95.2054L26.3848 87.7419H45.8757L47.7835 95.2079C47.9095 95.2596 48.0355 95.3112 48.1603 95.3654L54.7845 91.4352L68.5673 105.218L64.6371 111.842C64.6913 111.97 64.7429 112.096 64.7946 112.219L72.2581 114.127V133.618L64.7921 135.525C64.7404 135.651 64.6888 135.777 64.6346 135.902L68.5648 142.526L54.782 156.309L48.1578 152.379C48.0305 152.433 47.9045 152.485 47.781 152.537L45.8732 160H26.3823L24.4745 152.534C24.3485 152.482 24.2225 152.431 24.0978 152.377L17.4735 156.307L3.69077 142.524L7.62096 135.9C7.56678 135.772 7.51511 135.646 7.46345 135.523L-5.72205e-06 133.615ZM10.1751 141.711L18.2888 149.825L23.8042 146.552L25.0454 147.146C25.8455 147.525 26.6633 147.868 27.505 148.165L28.8054 148.627L30.3894 154.839H41.8662L43.4501 148.627L44.7505 148.165C45.5922 147.87 46.4125 147.528 47.2102 147.146L48.4514 146.552L53.9667 149.825L62.0804 141.711L58.808 136.196L59.4015 134.955C59.7807 134.154 60.1235 133.337 60.4209 132.495L60.882 131.195L67.0968 129.611V118.134L60.8846 116.55L60.4234 115.25C60.1285 114.408 59.7858 113.587 59.404 112.79L58.8105 111.549L62.0829 106.033L53.9692 97.9196L48.4539 101.192L47.2127 100.599C46.4125 100.219 45.5948 99.8765 44.753 99.5791L43.4526 99.118L41.8687 92.9032H30.3919L28.808 99.1154L27.5076 99.5766C26.6658 99.8715 25.8455 100.214 25.0479 100.596L23.8067 101.19L18.2913 97.9171L10.1777 106.031L13.4501 111.546L12.8566 112.787C12.4773 113.587 12.1346 114.405 11.8372 115.247L11.376 116.547L5.16128 118.131V129.608L11.3735 131.192L11.8347 132.492C12.1295 133.334 12.4723 134.154 12.8541 134.952L13.4476 136.193L10.1751 141.711Z" fill="black"/>
<path d="M36.129 103.226C47.5126 103.226 56.7742 112.487 56.7742 123.871C56.7742 135.255 47.5126 144.516 36.129 144.516C24.7454 144.516 15.4838 135.255 15.4838 123.871C15.4838 112.487 24.7454 103.226 36.129 103.226ZM36.129 139.355C44.6686 139.355 51.6129 132.411 51.6129 123.871C51.6129 115.331 44.6686 108.387 36.129 108.387C27.5894 108.387 20.6451 115.331 20.6451 123.871C20.6451 132.411 27.5894 139.355 36.129 139.355Z" fill="black"/>
<path d="M36.1291 113.548C41.8221 113.548 46.4517 118.178 46.4517 123.871C46.4517 129.564 41.8221 134.194 36.1291 134.194C30.436 134.194 25.8065 129.564 25.8065 123.871C25.8065 118.178 30.436 113.548 36.1291 113.548ZM36.1291 129.032C38.9756 129.032 41.2904 126.717 41.2904 123.871C41.2904 121.024 38.9756 118.71 36.1291 118.71C33.2825 118.71 30.9678 121.024 30.9678 123.871C30.9678 126.717 33.2825 129.032 36.1291 129.032Z" fill="black"/>
<path d="M94.6447 43.6958C93.7803 46.2298 92.2757 48.464 90.3226 50.2193V52.408L102.593 57.0086C107.602 58.8848 110.968 63.7399 110.968 69.089V82.5806H49.0323V69.089C49.0323 63.7399 52.398 58.8848 57.4043 57.006L69.6775 52.4055V50.2193C67.7243 48.4665 66.2198 46.2324 65.3554 43.6958C60.4927 42.8616 56.7742 38.6429 56.7742 33.5484V23.2258C56.7742 10.4209 67.1926 0 80 0C92.8075 0 103.226 10.4209 103.226 23.2258V33.5484C103.226 38.6429 99.5073 42.8616 94.6447 43.6958ZM74.8387 53.4791L80 62.0804L85.1613 53.4791V53.2901C83.5434 53.8659 81.812 54.1935 80 54.1935C78.188 54.1935 76.4567 53.8634 74.8387 53.2901V53.4791ZM88.8496 57.3652L83.6467 66.0333L88.8156 68.6164L92.1548 58.6038L88.8496 57.3652ZM54.1936 69.089V77.4193H105.806V69.089C105.806 65.8783 103.788 62.9675 100.783 61.8397L96.9884 60.4183L91.8297 75.8972L80 69.9824L68.1704 75.8972L63.0116 60.4183L59.215 61.8422C56.2122 62.9675 54.1936 65.8783 54.1936 69.089ZM67.8453 58.6038L71.1845 68.6189L76.3534 66.0358L71.1505 57.3652L67.8453 58.6038ZM80 49.0323C85.6931 49.0323 90.3226 44.4027 90.3226 38.7097V28.2119C86.5449 27.8138 82.9801 26.4365 80 24.0927C77.0199 26.439 73.4552 27.8138 69.6775 28.2119V38.7097C69.6775 44.4027 74.307 49.0323 80 49.0323ZM64.5162 37.9927V29.1066C62.9801 30.0025 61.9355 31.6494 61.9355 33.5509C61.9355 35.4524 62.9801 37.0968 64.5162 37.9927ZM80 5.16129C70.0416 5.16129 61.9355 13.2649 61.9355 23.2258V24.661C63.4602 23.7727 65.2079 23.2258 67.0968 23.2258H67.5404C71.5588 23.2258 75.3365 21.662 78.1754 18.8206L80 16.9934L81.8246 18.8206C84.6661 21.662 88.4413 23.2258 92.4597 23.2258H92.9033C94.7921 23.2258 96.5399 23.7727 98.0645 24.661V23.2258C98.0645 13.2649 89.9585 5.16129 80 5.16129ZM95.4839 29.1041V33.5471V37.9902C97.0199 37.0943 98.0645 35.4473 98.0645 33.5459C98.0645 31.6444 97.0199 30 95.4839 29.1041Z" fill="black"/>
<path d="M160 160H108.387V92.9033H160V160ZM154.839 98.0646H113.548V154.839H154.839V98.0646Z" fill="black"/>
<path d="M149.677 103.226H118.71V108.387H149.677V103.226Z" fill="black"/>
<path d="M149.677 113.548H144.516V118.71H149.677V113.548Z" fill="black"/>
<path d="M139.355 113.548H118.71V118.71H139.355V113.548Z" fill="black"/>
<path d="M149.677 123.871H118.71V129.032H149.677V123.871Z" fill="black"/>
<path d="M149.677 134.194H118.71V139.355H149.677V134.194Z" fill="black"/>
<path d="M123.871 144.516H118.71V149.677H123.871V144.516Z" fill="black"/>
<path d="M149.677 144.516H129.032V149.677H149.677V144.516Z" fill="black"/>
<path d="M91.0786 115.373L94.7278 111.724L106.875 123.871L94.7278 136.018L91.0786 132.369L96.996 126.452H77.4194V121.29H96.996L91.0786 115.373Z" fill="black"/>
<path d="M131.613 41.2904C131.613 39.869 130.456 38.7098 129.032 38.7098H117.198L123.115 44.6271L119.466 48.2763L107.319 36.1291L119.466 23.9819L123.115 27.6311L117.198 33.5485H129.032C133.3 33.5485 136.774 37.0225 136.774 41.2904V87.742H131.613V41.2904Z" fill="black"/>
<path d="M36.129 41.2903V73.7701L42.0464 67.8528L45.6956 71.502L33.5484 83.6491L21.4012 71.502L25.0504 67.8528L30.9678 73.7701V41.2903C30.9678 37.0224 34.4418 33.5483 38.7097 33.5483H51.6129V38.7096H38.7097C37.2858 38.7096 36.129 39.8689 36.129 41.2903Z" fill="black"/>
</g>
<defs>
<clipPath id="clip0">
<rect width="160" height="160" fill="white" transform="matrix(-1 0 0 1 160 0)"/>
</clipPath>
</defs>
</svg>
