<svg width="512" height="512" viewBox="0 0 512 512" fill="none" xmlns="http://www.w3.org/2000/svg">
<path d="M497.36 69.9948C489.828 62.4498 477.607 62.4368 470.075 69.9628L238.582 300.845L155.06 210.132C147.843 202.298 135.641 201.79 127.794 209.006C119.953 216.223 119.451 228.431 126.668 236.272L223.794 341.753C227.351 345.619 232.329 347.864 237.578 347.973C237.719 347.979 237.855 347.979 237.99 347.979C243.091 347.979 247.998 345.953 251.613 342.351L497.322 97.2858C504.873 89.7608 504.886 77.5398 497.36 69.9948Z" fill="#39AC37"/>
<path d="M492.703 236.703C482.045 236.703 473.407 245.341 473.407 256C473.407 375.883 375.883 473.407 256 473.407C136.124 473.407 38.593 375.883 38.593 256C38.593 136.124 136.124 38.593 256 38.593C266.658 38.593 275.297 29.955 275.297 19.297C275.297 8.638 266.658 0 256 0C114.84 0 0 114.84 0 256C0 397.154 114.84 512 256 512C397.154 512 512 397.154 512 256C512 245.342 503.362 236.703 492.703 236.703Z" fill="#39AC37"/>
</svg>
