<svg width="193" height="160" viewBox="0 0 193 160" fill="none" xmlns="http://www.w3.org/2000/svg">
<rect width="193" height="160" fill="white"/>
<path d="M136 40H56C50.5 40 46.05 44.5 46.05 50L46 110C46 115.5 50.5 120 56 120H136C141.5 120 146 115.5 146 110V50C146 44.5 141.5 40 136 40ZM136 60L96 85L56 60V50L96 75L136 50V60Z" fill="#39AC37" fill-opacity="0.5"/>
<path fill-rule="evenodd" clip-rule="evenodd" d="M33.6889 0H158.222C168 0 176 8 176 17.7778V142.222C176 152 168 160 158.222 160H33.6889C23.8222 160 16 152 16 142.222V17.7778C16 8 23.8222 0 33.6889 0ZM33.7778 115.556V142.222H158.222V115.556H126.756C120.533 126.133 109.244 133.333 96.0889 133.333C82.9333 133.333 71.5556 126.133 65.4222 115.556H33.7778ZM113.867 97.7778H158.222V17.7778H33.6889L33.7778 97.7778H78.3111C78.3111 107.556 86.3111 115.556 96.0889 115.556C105.867 115.556 113.867 107.556 113.867 97.7778Z" fill="#39AC37"/>
</svg>
