<svg width="193" height="160" viewBox="0 0 193 160" fill="none" xmlns="http://www.w3.org/2000/svg">
<g clip-path="url(#clip0)">
<rect width="193" height="160" fill="white"/>
<g clip-path="url(#clip1)">
<path d="M146.81 155.934L180.439 106.181C181.662 104.374 182.106 102.198 181.692 100.056C181.277 97.9137 180.054 96.061 178.246 94.8392L88.4948 34.1737C86.687 32.9517 84.5116 32.5071 82.3696 32.921C80.2275 33.3354 78.3747 34.5591 77.153 36.3667L43.524 86.1192C42.3018 87.9267 41.8571 90.102 42.2715 92.2446C42.4987 93.4201 42.9698 94.5079 43.6472 95.4527C44.2045 96.2299 44.901 96.91 45.7173 97.4615L135.469 158.127L135.469 158.128C139.2 160.649 144.288 159.665 146.81 155.934ZM166.234 96.5798L111.256 97.2221L91.3559 45.967L166.234 96.5798ZM52.667 87.1777L81.8377 44.0218L97.4796 84.3127L52.667 87.1777ZM56.8083 95.0987L100.581 92.3003L104.664 102.818C104.792 103.144 104.956 103.449 105.151 103.721C105.917 104.79 107.168 105.441 108.52 105.426L119.806 105.29L133.525 146.954L56.8083 95.0987ZM128.374 105.194L171.592 104.685L142.42 147.85L128.374 105.194Z" fill="#30E7B6"/>
<path d="M32.3805 72.4984C33.6439 70.6298 33.1516 68.0902 31.2841 66.8277L17.6877 57.6375C15.8184 56.3745 13.2798 56.8656 12.0167 58.7341C11.0323 60.1903 11.113 62.0525 12.0807 63.4021C12.3548 63.7844 12.7008 64.1261 13.1135 64.4049L26.7095 73.5945C28.5783 74.8588 31.1172 74.3674 32.3805 72.4984Z" fill="#30E7B6"/>
<path d="M51.0559 33.4743C52.3189 31.605 51.827 29.0666 49.9593 27.8032L41.5664 22.1304C39.6972 20.8674 37.1589 21.3583 35.8954 23.227C34.9113 24.683 34.992 26.5457 35.9595 27.895C36.2335 28.2773 36.5795 28.619 36.9922 28.8978L45.3851 34.5707C47.2535 35.8343 49.7926 35.3433 51.0559 33.4743Z" fill="#30E7B6"/>
<path d="M19.0493 41.9317C20.3124 40.0624 19.821 37.5235 17.9527 36.2606L11.7165 32.0454C9.84726 30.7823 7.30865 31.2735 6.04547 33.142C5.06135 34.598 5.14185 36.4604 6.10956 37.81C6.38364 38.1922 6.72957 38.5339 7.14233 38.8128L13.3786 43.028C15.2474 44.2918 17.7861 43.8006 19.0493 41.9317Z" fill="#30E7B6"/>
<g clip-path="url(#clip2)">
<path d="M159.602 19.8711C149.076 12.7634 134.789 15.5167 127.697 26.0199C121.746 34.8324 122.767 46.2906 129.465 53.9522L131.061 62.1375L139.25 60.5594C148.86 63.9098 159.869 60.5747 165.82 51.7621C172.912 41.2589 170.128 26.9788 159.602 19.8711ZM156.748 24.0978C160.263 26.4718 161.189 31.22 158.82 34.7281C156.451 38.2362 151.701 39.1517 148.185 36.7777C144.67 34.4037 143.744 29.6555 146.113 26.1474C148.482 22.6392 153.232 21.7238 156.748 24.0978ZM136.341 54.3183C131.046 50.7429 128.192 44.8773 128.229 38.9326C131.132 34.77 141.096 38.1441 145.331 41.0043C149.546 43.8503 156.42 51.8457 153.644 56.0941C148.143 58.3491 141.636 57.8936 136.341 54.3183Z" fill="#FCCD8A"/>
</g>
</g>
</g>
<defs>
<clipPath id="clip0">
<rect width="193" height="160" fill="white"/>
</clipPath>
<clipPath id="clip1">
<rect width="182.578" height="182.578" fill="white" transform="translate(117.377 -47) rotate(54.3581)"/>
</clipPath>
<clipPath id="clip2">
<rect width="150" height="150" fill="white" transform="translate(21 4)"/>
</clipPath>
</defs>
</svg>
