<?xml version="1.0" encoding="UTF-8"?>
<svg width="19px" height="19px" viewBox="0 0 19 19" version="1.1" xmlns="http://www.w3.org/2000/svg" xmlns:xlink="http://www.w3.org/1999/xlink">
    <title>arrow</title>
    <desc>Arrow.</desc>
    <g id="Page" stroke="none" stroke-width="1" fill="none" fill-rule="evenodd">
        <g id="Web-01.01" transform="translate(-851.000000, -4276.000000)" fill="#090928" fill-rule="nonzero">
            <g id="Article-Copy-2" transform="translate(536.000000, 3939.000000)">
                <g id="arrow" transform="translate(307.000000, 329.000000)">
                    <path d="M19.205,6.333 C18.776,5.889 18.062,5.889 17.618,6.333 C17.189,6.762 17.189,7.476 17.618,7.904 L25.665,15.951 L6.111,15.951 C5.492,15.952 5,16.444 5,17.063 C5,17.682 5.492,18.19 6.111,18.19 L25.665,18.19 L17.618,26.222 C17.189,26.666 17.189,27.381 17.618,27.809 C18.062,28.253 18.777,28.253 19.205,27.809 L29.157,17.857 C29.601,17.428 29.601,16.714 29.157,16.286 L19.205,6.333 Z" id="Path-Copy-3" transform="translate(17.245000, 17.071000) scale(1, -1) rotate(-45.000000) translate(-17.245000, -17.071000) "></path>
                </g>
            </g>
        </g>
    </g>
</svg>