<svg width="24" height="24" viewBox="0 0 24 24" fill="none" xmlns="http://www.w3.org/2000/svg">
<path d="M20.16 4.60981C19.0983 3.54782 17.6908 2.90214 16.1933 2.79019C14.6958 2.67825 13.2078 3.10748 12 3.99981C10.7277 3.05345 9.14402 2.62433 7.56795 2.79885C5.99188 2.97338 4.54047 3.73859 3.506 4.9404C2.47154 6.14221 1.93085 7.69133 1.99283 9.27583C2.05481 10.8603 2.71485 12.3625 3.84003 13.4798L11.29 20.9298C11.383 21.0235 11.4936 21.0979 11.6155 21.1487C11.7373 21.1995 11.868 21.2256 12 21.2256C12.132 21.2256 12.2627 21.1995 12.3846 21.1487C12.5065 21.0979 12.6171 21.0235 12.71 20.9298L20.16 13.4798C20.7427 12.8975 21.2049 12.2062 21.5202 11.4452C21.8356 10.6842 21.9979 9.86854 21.9979 9.04481C21.9979 8.22108 21.8356 7.40542 21.5202 6.64445C21.2049 5.88347 20.7427 5.19209 20.16 4.60981ZM18.75 12.0698L12 18.8098L5.25003 12.0698C4.65521 11.4725 4.25001 10.7129 4.08526 9.88615C3.92052 9.05945 4.00356 8.2025 4.32398 7.42281C4.6444 6.64312 5.18793 5.97541 5.88638 5.50344C6.58483 5.03147 7.40709 4.77625 8.25003 4.76981C9.37614 4.77257 10.4551 5.22215 11.25 6.01981C11.343 6.11354 11.4536 6.18794 11.5755 6.23871C11.6973 6.28947 11.828 6.31561 11.96 6.31561C12.092 6.31561 12.2227 6.28947 12.3446 6.23871C12.4665 6.18794 12.5771 6.11354 12.67 6.01981C13.4884 5.3107 14.5455 4.93896 15.6276 4.97984C16.7096 5.02072 17.7357 5.47116 18.4982 6.24C19.2607 7.00884 19.7026 8.03865 19.7345 9.121C19.7664 10.2034 19.3859 11.2574 18.67 12.0698H18.75Z" fill="black"/>
</svg>
