<svg width="10" height="12" viewBox="0 0 10 12" fill="none" xmlns="http://www.w3.org/2000/svg">
<path d="M4.29002 5.45976C4.38298 5.55349 4.49359 5.62788 4.61544 5.67865C4.7373 5.72942 4.86801 5.75556 5.00002 5.75556C5.13203 5.75556 5.26274 5.72942 5.3846 5.67865C5.50646 5.62788 5.61706 5.55349 5.71002 5.45976L8.71002 2.45976C8.80589 2.36652 8.88245 2.25531 8.93533 2.13248C8.98822 2.00966 9.0164 1.87762 9.01826 1.7439C9.02011 1.61018 8.99561 1.47741 8.94616 1.35316C8.8967 1.22891 8.82326 1.11562 8.73002 1.01976C8.63678 0.923893 8.52558 0.847332 8.40275 0.794445C8.27992 0.741558 8.14788 0.713381 8.01416 0.711524C7.88045 0.709667 7.74767 0.734165 7.62343 0.78362C7.49918 0.833076 7.38589 0.906519 7.29002 0.999758L5.00002 3.33976L2.71002 0.999758C2.51641 0.811454 2.25593 0.707773 1.98588 0.711524C1.71583 0.715275 1.45833 0.82615 1.27002 1.01976C1.08172 1.21337 0.978037 1.47385 0.981788 1.7439C0.985539 2.01395 1.09641 2.27145 1.29002 2.45976L4.29002 5.45976ZM7.29002 6.53976L5.00002 8.83976L2.71002 6.53976C2.51641 6.35145 2.25593 6.24777 1.98588 6.25152C1.71583 6.25527 1.45833 6.36615 1.27002 6.55976C1.08172 6.75337 0.978037 7.01385 0.981788 7.2839C0.985539 7.55395 1.09641 7.81145 1.29002 7.99976L4.29002 10.9998C4.38298 11.0935 4.49359 11.1679 4.61544 11.2186C4.7373 11.2694 4.86801 11.2956 5.00002 11.2956C5.13203 11.2956 5.26274 11.2694 5.3846 11.2186C5.50646 11.1679 5.61706 11.0935 5.71002 10.9998L8.71002 7.99976C8.89832 7.81145 9.00411 7.55606 9.00411 7.28976C9.00411 7.02346 8.89832 6.76806 8.71002 6.57976C8.52172 6.39145 8.26632 6.28567 8.00002 6.28567C7.73372 6.28567 7.47832 6.39145 7.29002 6.57976V6.53976Z" fill="black"/>
</svg>
