<svg width="380" height="121" viewBox="0 0 380 121" fill="none" xmlns="http://www.w3.org/2000/svg">
<path d="M23.6406 40.9141C22.1406 40.9141 20.6172 41.0547 19.0703 41.3359C17.5703 41.6172 16.0703 41.9453 14.5703 42.3203C13.0703 42.6484 11.5703 42.9531 10.0703 43.2344C8.57031 43.5156 7.04688 43.6562 5.5 43.6562C5.03125 43.6562 4.53906 43.6094 4.02344 43.5156C3.55469 43.375 3.32031 42.9531 3.32031 42.25C3.32031 41.7812 3.50781 41.3125 3.88281 40.8438C4.30469 40.3281 4.75 40.0469 5.21875 40L24.0625 37.2578C24.1094 37.0703 24.1797 36.7891 24.2734 36.4141C24.3672 35.9922 24.4844 35.5938 24.625 35.2188C24.8125 34.7969 25.0469 34.4453 25.3281 34.1641C25.6094 33.8359 25.9375 33.6719 26.3125 33.6719C26.875 33.6719 27.3203 33.8125 27.6484 34.0938C27.9766 34.375 28.2578 34.7031 28.4922 35.0781C28.7266 35.4062 28.9375 35.7109 29.125 35.9922C29.3125 36.2734 29.5469 36.4141 29.8281 36.4141H30.3906C30.8594 36.3672 31.6094 36.2969 32.6406 36.2031C33.6719 36.0625 34.8438 35.9219 36.1562 35.7812C37.5156 35.6406 38.9453 35.5 40.4453 35.3594C41.9453 35.1719 43.375 35.0312 44.7344 34.9375C46.0938 34.7969 47.2891 34.6797 48.3203 34.5859C49.3516 34.4453 50.1016 34.3281 50.5703 34.2344C50.7109 34.2344 51.0391 34.2344 51.5547 34.2344C52.1172 34.1875 52.5156 34.1641 52.75 34.1641C52.75 35.0547 52.2578 35.8047 51.2734 36.4141C50.3359 36.9766 49.1172 37.4688 47.6172 37.8906C46.1641 38.2656 44.5234 38.5703 42.6953 38.8047C40.9141 38.9922 39.1562 39.1562 37.4219 39.2969C35.7344 39.4375 34.1641 39.5547 32.7109 39.6484C31.3047 39.7422 30.2266 39.8594 29.4766 40C29.2891 43.3281 29.3594 46.7969 29.6875 50.4062C30.0625 54.0156 30.5078 57.6484 31.0234 61.3047C31.5859 64.9609 32.1016 68.5938 32.5703 72.2031C33.0391 75.8125 33.2734 79.2578 33.2734 82.5391C33.4609 83.1953 33.5312 83.7109 33.4844 84.0859C33.4844 84.4609 33.3672 84.7188 33.1328 84.8594C32.8984 85 32.5469 85.0703 32.0781 85.0703C31.6094 85.0703 31.0469 85.0469 30.3906 85C29.9219 83.3125 29.5 81.3438 29.125 79.0938C28.7969 76.7969 28.4922 74.3594 28.2109 71.7812C27.9297 69.1562 27.6484 66.4609 27.3672 63.6953C27.1328 60.9297 26.8984 58.1875 26.6641 55.4688C26.4297 52.75 26.1719 50.1484 25.8906 47.6641C25.6094 45.1797 25.2812 42.9297 24.9062 40.9141H23.6406ZM65.0547 76.8438C64.8672 77.4062 64.3984 78.1797 63.6484 79.1641C62.9453 80.1016 62.1016 81.0625 61.1172 82.0469C60.1328 82.9844 59.1016 83.8281 58.0234 84.5781C56.9922 85.2812 56.0781 85.6328 55.2812 85.6328C53.7812 85.6328 52.5391 84.9297 51.5547 83.5234C50.6172 82.1172 49.8906 80.3125 49.375 78.1094C48.8594 75.9062 48.5078 73.4688 48.3203 70.7969C48.1328 68.0781 48.0156 65.4297 47.9688 62.8516C47.9219 60.2734 47.8984 57.9297 47.8984 55.8203C47.8984 53.7109 47.8281 52.1172 47.6875 51.0391C47.875 50.5703 48.1094 50.2891 48.3906 50.1953C48.7188 50.1016 49.0938 50.0547 49.5156 50.0547C49.8906 50.0547 50.2188 50.1016 50.5 50.1953C50.8281 50.2891 51.1094 50.5703 51.3438 51.0391C51.3438 51.5547 51.3438 52.4219 51.3438 53.6406C51.3906 54.8594 51.4609 56.2422 51.5547 57.7891C51.6484 59.2891 51.7422 60.8828 51.8359 62.5703C51.9297 64.2109 52 65.7812 52.0469 67.2812C52.1406 68.7812 52.2109 70.1406 52.2578 71.3594C52.3516 72.5312 52.4219 73.3984 52.4688 73.9609C52.5156 74.2891 52.5625 74.8281 52.6094 75.5781C52.7031 76.3281 52.8203 77.125 52.9609 77.9688C53.1484 78.7656 53.3594 79.4922 53.5938 80.1484C53.875 80.8047 54.2266 81.1562 54.6484 81.2031C55.3516 81.2031 56.0547 80.8984 56.7578 80.2891C57.5078 79.6797 58.2344 78.9062 58.9375 77.9688C59.6406 77.0312 60.2969 76 60.9062 74.875C61.5156 73.75 62.0547 72.6719 62.5234 71.6406C63.0391 70.5625 63.4141 69.6016 63.6484 68.7578C63.9297 67.9141 64.0938 67.3047 64.1406 66.9297C64.2344 66.1328 64.3281 65.0078 64.4219 63.5547C64.5156 62.0547 64.5859 60.4609 64.6328 58.7734C64.6797 57.0859 64.7031 55.4922 64.7031 53.9922C64.75 52.4922 64.7734 51.3438 64.7734 50.5469L68.6406 50.7578C68.6875 54.5547 68.6641 58 68.5703 61.0938C68.4766 64.1406 68.4531 67.0234 68.5 69.7422C68.5469 72.4141 68.7578 75.0156 69.1328 77.5469C69.5078 80.0781 70.1875 82.7031 71.1719 85.4219C71.0312 85.5625 70.75 85.75 70.3281 85.9844C69.9062 86.2656 69.6016 86.4062 69.4141 86.4062C68.2422 86.4062 67.4453 86.0078 67.0234 85.2109C66.6484 84.4609 66.3906 83.5703 66.25 82.5391C66.1562 81.4609 66.0625 80.4062 65.9688 79.375C65.9219 78.2969 65.6172 77.4531 65.0547 76.8438ZM58.5859 42.7422C57.3203 42.4609 56.6172 41.9688 56.4766 41.2656C56.3828 40.5625 56.6406 39.7656 57.25 38.875C57.8594 37.9375 58.7031 36.9531 59.7812 35.9219C60.8594 34.8438 61.9375 33.8125 63.0156 32.8281C63.8125 32.8281 64.3516 33.0391 64.6328 33.4609C64.9141 33.8828 65.0547 34.375 65.0547 34.9375V35.4297C64.9609 35.9922 64.6797 36.6016 64.2109 37.2578C63.7422 37.9141 63.1797 38.5703 62.5234 39.2266C61.8672 39.8828 61.1641 40.5156 60.4141 41.125C59.7109 41.7344 59.1016 42.2734 58.5859 42.7422ZM76.5859 81.4141C76.9141 79.2578 77.125 76.5625 77.2188 73.3281C77.3594 70.0938 77.4062 66.6484 77.3594 62.9922C77.3594 59.3359 77.2891 55.5625 77.1484 51.6719C77.0078 47.7812 76.8203 44.1016 76.5859 40.6328C76.3516 37.1172 76.0703 33.9766 75.7422 31.2109C75.4609 28.4453 75.1562 26.2656 74.8281 24.6719C75.25 24.3906 75.6016 24.1797 75.8828 24.0391C76.2109 23.8516 76.5859 23.7578 77.0078 23.7578C77.3359 23.7578 77.6172 23.8281 77.8516 23.9688C78.0859 24.0625 78.2734 24.2969 78.4141 24.6719C79.3516 33.8594 79.9844 43.1172 80.3125 52.4453C80.6875 61.7734 80.9688 71.0547 81.1562 80.2891C81.1562 80.7109 81.1562 81.2969 81.1562 82.0469C81.1562 82.75 81.1328 83.125 81.0859 83.1719C80.4297 83.5 79.8438 83.6641 79.3281 83.6641C78.8125 83.6172 78.3438 83.4766 77.9219 83.2422C77.5 82.9609 77.1719 82.6562 76.9375 82.3281C76.7031 82 76.5859 81.6953 76.5859 81.4141ZM104.992 83.1719C104.758 81.9531 104.547 80.5 104.359 78.8125C104.219 77.0781 104.055 75.3438 103.867 73.6094C103.68 71.8281 103.445 70.1641 103.164 68.6172C102.93 67.0703 102.555 65.8047 102.039 64.8203C99.6484 69.6953 97.5391 73.5391 95.7109 76.3516C93.8828 79.1172 92.2656 81.1094 90.8594 82.3281C89.5 83.5 88.3516 84.0625 87.4141 84.0156C86.4766 83.9688 85.7031 83.5469 85.0938 82.75C84.4844 81.9531 84.0391 80.9453 83.7578 79.7266C83.5234 78.4609 83.3594 77.2891 83.2656 76.2109C83.2656 75.1797 83.5 73.7266 83.9688 71.8516C84.4375 69.9766 85.0703 67.9375 85.8672 65.7344C86.6641 63.4844 87.6016 61.2109 88.6797 58.9141C89.8047 56.6172 91 54.5312 92.2656 52.6562C93.5312 50.7812 94.8438 49.2344 96.2031 48.0156C97.5625 46.7969 98.9219 46.1875 100.281 46.1875C102.297 45.8594 103.773 46.3047 104.711 47.5234C105.695 48.6953 105.883 50.6875 105.273 53.5C105.273 56.5938 105.391 59.2422 105.625 61.4453C105.906 63.6484 106.188 65.7578 106.469 67.7734C106.797 69.7891 107.078 71.8984 107.312 74.1016C107.594 76.3047 107.734 78.9531 107.734 82.0469C107.734 82.6094 107.664 83.1016 107.523 83.5234C107.43 83.8984 106.867 84.0859 105.836 84.0859C105.695 84.0859 105.508 83.9688 105.273 83.7344C105.086 83.5 104.992 83.3125 104.992 83.1719ZM101.195 51.7422C100.68 50.9922 99.9766 50.9219 99.0859 51.5312C98.1953 52.1406 97.2578 53.1484 96.2734 54.5547C95.2891 55.9609 94.2812 57.6484 93.25 59.6172C92.2188 61.5859 91.2578 63.5781 90.3672 65.5938C89.4766 67.6094 88.7031 69.5312 88.0469 71.3594C87.3906 73.1406 86.9453 74.6172 86.7109 75.7891C86.7109 77.4766 86.9688 78.4375 87.4844 78.6719C88 78.8594 88.6328 78.5781 89.3828 77.8281C90.1328 77.0781 90.9766 76 91.9141 74.5938C92.8984 73.1875 93.8359 71.6875 94.7266 70.0938C95.6641 68.5 96.5312 66.9531 97.3281 65.4531C98.1719 63.9531 98.8281 62.7344 99.2969 61.7969C99.7188 60.8125 100.047 59.8984 100.281 59.0547C100.516 58.2109 100.703 57.4141 100.844 56.6641C101.031 55.8672 101.125 55.0703 101.125 54.2734C101.172 53.4766 101.195 52.6328 101.195 51.7422ZM110.477 56.2422C110.477 56.1953 110.453 56.125 110.406 56.0312C110.406 55.8906 110.406 55.7969 110.406 55.75C110.406 55.0469 110.688 54.6484 111.25 54.5547C111.812 54.4141 112.328 54.3438 112.797 54.3438C113.312 54.3438 113.898 54.7891 114.555 55.6797C115.211 56.5234 115.938 57.6719 116.734 59.125C117.578 60.5312 118.422 62.0781 119.266 63.7656C120.156 65.4531 121.047 67.1172 121.938 68.7578C122.875 70.3516 123.812 71.8047 124.75 73.1172C125.734 74.4297 126.672 75.3906 127.562 76C127.844 71.7344 128.055 68.1016 128.195 65.1016C128.336 62.1016 128.43 59.5703 128.477 57.5078C128.57 55.4453 128.617 53.8281 128.617 52.6562C128.617 51.4375 128.594 50.5 128.547 49.8438C128.547 49.1875 128.523 48.7656 128.477 48.5781C128.477 48.3438 128.477 48.1797 128.477 48.0859C128.477 47.2422 128.617 46.7266 128.898 46.5391C129.227 46.3516 129.648 46.2578 130.164 46.2578C130.773 46.2578 131.406 46.3516 132.062 46.5391C132.719 46.7266 133.047 47.1953 133.047 47.9453C133.188 50.9922 133.188 54.0859 133.047 57.2266C132.953 60.3203 132.789 63.4141 132.555 66.5078C132.32 69.5547 132.133 72.5547 131.992 75.5078C131.852 78.4609 131.852 81.3203 131.992 84.0859C131.898 84.1797 131.688 84.2969 131.359 84.4375C131.031 84.5312 130.68 84.625 130.305 84.7188C129.93 84.8125 129.555 84.8828 129.18 84.9297C128.852 84.9766 128.617 85 128.477 85C128.008 84.9062 127.281 84.2734 126.297 83.1016C125.312 81.8828 124.211 80.3594 122.992 78.5312C121.773 76.7031 120.508 74.6641 119.195 72.4141C117.883 70.1641 116.617 67.9844 115.398 65.875C114.227 63.7656 113.195 61.8438 112.305 60.1094C111.414 58.375 110.805 57.0859 110.477 56.2422ZM138.953 69.8125C138.719 69.8594 138.367 69.9297 137.898 70.0234C137.43 70.1172 136.938 70.1406 136.422 70.0938C135.906 70.0469 135.461 69.9062 135.086 69.6719C134.664 69.4375 134.453 69.0391 134.453 68.4766C134.453 68.1484 134.523 67.9141 134.664 67.7734C134.805 67.6328 135.039 67.4219 135.367 67.1406C136.398 66.2969 137.266 65.2188 137.969 63.9062C138.719 62.5469 139.398 61.1172 140.008 59.6172C140.617 58.0703 141.25 56.5469 141.906 55.0469C142.609 53.5 143.406 52.1172 144.297 50.8984C145.188 49.6797 146.289 48.6953 147.602 47.9453C148.914 47.1953 150.531 46.8438 152.453 46.8906C153.25 46.8906 154.141 47.0781 155.125 47.4531C156.109 47.8281 157.023 48.3438 157.867 49C158.711 49.6094 159.414 50.3594 159.977 51.25C160.539 52.1406 160.82 53.125 160.82 54.2031C161.055 54.5781 160.82 55.1172 160.117 55.8203C159.461 56.5234 158.547 57.2969 157.375 58.1406C156.203 58.9375 154.867 59.7812 153.367 60.6719C151.914 61.5156 150.508 62.3125 149.148 63.0625C147.789 63.8125 146.594 64.4688 145.562 65.0312C144.531 65.5938 143.852 66.0156 143.523 66.2969C143.289 66.7656 143.102 67.3047 142.961 67.9141C142.82 68.5234 142.703 69.1094 142.609 69.6719C142.562 70.1875 142.516 70.6797 142.469 71.1484C142.469 71.5703 142.469 71.8984 142.469 72.1328C142.469 73.0234 142.422 74.0078 142.328 75.0859C142.281 76.1641 142.328 77.1953 142.469 78.1797C142.656 79.1172 143.055 79.9141 143.664 80.5703C144.273 81.1797 145.305 81.4844 146.758 81.4844C148.305 81.4844 149.758 81.1094 151.117 80.3594C152.477 79.5625 153.742 78.6016 154.914 77.4766C156.086 76.3516 157.141 75.1328 158.078 73.8203C159.062 72.5078 159.93 71.2891 160.68 70.1641C161.477 68.9922 162.18 68.0312 162.789 67.2812C163.398 66.5312 163.914 66.1562 164.336 66.1562C164.805 66.1562 165.297 66.25 165.812 66.4375C166.375 66.5781 166.656 66.9531 166.656 67.5625C166.656 68.4062 166.305 69.4141 165.602 70.5859C164.945 71.7578 164.055 73 162.93 74.3125C161.852 75.625 160.586 76.9375 159.133 78.25C157.727 79.5156 156.297 80.6641 154.844 81.6953C153.391 82.6797 151.961 83.5 150.555 84.1562C149.148 84.7656 147.906 85.0703 146.828 85.0703C144.719 85.0703 143.125 84.5547 142.047 83.5234C140.969 82.4922 140.195 81.2031 139.727 79.6562C139.305 78.1094 139.07 76.4688 139.023 74.7344C139.023 72.9531 139 71.3125 138.953 69.8125ZM151.891 50.8281C151.094 50.8281 150.25 51.2266 149.359 52.0234C148.469 52.7734 147.625 53.7109 146.828 54.8359C146.078 55.9141 145.445 57.0391 144.93 58.2109C144.461 59.3359 144.227 60.2734 144.227 61.0234C144.93 61.0234 145.938 60.7656 147.25 60.25C148.609 59.6875 149.945 59.0078 151.258 58.2109C152.57 57.4141 153.719 56.5703 154.703 55.6797C155.688 54.7891 156.18 53.9453 156.18 53.1484C156.18 52.7266 156.016 52.375 155.688 52.0938C155.359 51.8125 154.961 51.5781 154.492 51.3906C154.07 51.2031 153.625 51.0625 153.156 50.9688C152.688 50.875 152.266 50.8281 151.891 50.8281ZM150.977 42.7422C149.711 42.4609 149.008 41.9688 148.867 41.2656C148.773 40.5625 149.031 39.7656 149.641 38.875C150.25 37.9375 151.094 36.9531 152.172 35.9219C153.25 34.8438 154.328 33.8125 155.406 32.8281C156.203 32.8281 156.742 33.0391 157.023 33.4609C157.305 33.8828 157.445 34.375 157.445 34.9375V35.4297C157.352 35.9922 157.07 36.6016 156.602 37.2578C156.133 37.9141 155.57 38.5703 154.914 39.2266C154.258 39.8828 153.555 40.5156 152.805 41.125C152.102 41.7344 151.492 42.2734 150.977 42.7422ZM204.625 31C205.609 30.0625 206.383 29.6875 206.945 29.875C207.555 30.0625 208 30.6953 208.281 31.7734C208.562 32.8516 208.727 34.2578 208.773 35.9922C208.82 37.7266 208.797 39.6953 208.703 41.8984C208.656 44.0547 208.539 46.3516 208.352 48.7891C208.164 51.1797 208 53.5469 207.859 55.8906C207.719 58.1875 207.625 60.3906 207.578 62.5C207.531 64.6094 207.602 66.4375 207.789 67.9844H208C208.094 67.9844 208.164 67.9609 208.211 67.9141C210.648 65.4766 212.828 62.8984 214.75 60.1797C216.672 57.4609 218.406 54.9062 219.953 52.5156C221.5 50.0781 222.859 47.9688 224.031 46.1875C225.25 44.4062 226.375 43.1875 227.406 42.5312C228.109 42.5312 228.695 42.6484 229.164 42.8828C229.68 43.1172 229.938 43.6562 229.938 44.5C229.938 44.5938 229.914 44.7578 229.867 44.9922C229.867 45.1797 229.867 45.3203 229.867 45.4141C228.695 47.8047 227.406 50.2188 226 52.6562C224.594 55.0469 223.07 57.3672 221.43 59.6172C219.789 61.8672 218.008 64 216.086 66.0156C214.211 68.0312 212.172 69.8594 209.969 71.5C209.969 71.5469 209.945 71.6406 209.898 71.7812C209.898 71.875 209.898 71.9453 209.898 71.9922C209.898 72.4609 210.273 72.9766 211.023 73.5391C211.82 74.1016 212.805 74.6406 213.977 75.1562C215.195 75.6719 216.531 76.1875 217.984 76.7031C219.484 77.2188 220.938 77.6641 222.344 78.0391C223.797 78.4141 225.133 78.7188 226.352 78.9531C227.617 79.1875 228.602 79.3047 229.305 79.3047C229.305 79.4922 229.305 79.8438 229.305 80.3594C229.352 80.875 229.328 81.4141 229.234 81.9766C229.141 82.5391 228.977 83.0547 228.742 83.5234C228.508 83.9453 228.133 84.1562 227.617 84.1562H227.336C227.242 84.1562 227.172 84.1328 227.125 84.0859L207.016 76C206.969 78.7656 206.781 81.0156 206.453 82.75C206.125 84.4375 205.727 85.6797 205.258 86.4766C204.836 87.3203 204.367 87.7188 203.852 87.6719C203.383 87.625 202.961 87.25 202.586 86.5469L204.625 31ZM236.406 84.0859C235.891 77.7578 235.422 71.4297 235 65.1016C234.625 58.7266 234.203 52.1172 233.734 45.2734C233.734 44.1484 234.344 43.5859 235.562 43.5859H236.125C236.266 43.5859 236.43 43.7734 236.617 44.1484C236.805 44.5234 236.992 45.2266 237.18 46.2578C237.414 47.2422 237.648 48.7656 237.883 50.8281C238.164 52.8438 238.492 55.4922 238.867 58.7734C239.242 62.0547 239.664 66.1562 240.133 71.0781C241.117 67.8906 241.891 64.7969 242.453 61.7969C243.016 58.7969 243.742 56.0781 244.633 53.6406C245.523 51.1562 246.766 48.9766 248.359 47.1016C250 45.2266 252.344 43.8438 255.391 42.9531C257.078 43.2344 258.438 44.2656 259.469 46.0469C260.5 47.7812 261.32 49.9375 261.93 52.5156C262.539 55.0938 262.961 57.9062 263.195 60.9531C263.43 63.9531 263.57 66.8359 263.617 69.6016C263.664 72.3672 263.688 74.8516 263.688 77.0547C263.688 79.2109 263.734 80.7578 263.828 81.6953C263.688 82.0703 263.477 82.3984 263.195 82.6797C262.914 82.9609 262.586 83.1719 262.211 83.3125C261.883 83.4062 261.555 83.4297 261.227 83.3828C260.898 83.2891 260.594 83.0312 260.312 82.6094C260.312 82.0938 260.266 81.0391 260.172 79.4453C260.078 77.8516 259.961 76 259.82 73.8906C259.68 71.7344 259.516 69.4609 259.328 67.0703C259.188 64.6328 259.047 62.3594 258.906 60.25C258.812 58.0938 258.719 56.2188 258.625 54.625C258.531 53.0312 258.461 51.9766 258.414 51.4609C257.43 49.7266 256.445 48.7422 255.461 48.5078C254.523 48.2734 253.562 48.5781 252.578 49.4219C251.641 50.2656 250.727 51.5547 249.836 53.2891C248.945 55.0234 248.102 56.9922 247.305 59.1953C246.508 61.3516 245.758 63.625 245.055 66.0156C244.352 68.4062 243.742 70.7266 243.227 72.9766C242.711 75.1797 242.266 77.1953 241.891 79.0234C241.562 80.8047 241.352 82.1875 241.258 83.1719C241.117 83.5 240.812 83.8281 240.344 84.1562C239.922 84.4375 239.453 84.6484 238.938 84.7891C238.469 84.9297 237.977 84.9766 237.461 84.9297C236.992 84.8359 236.641 84.5547 236.406 84.0859ZM269.383 83.5938C269.383 80.5469 269.312 77.3359 269.172 73.9609C269.078 70.5859 268.961 67.1875 268.82 63.7656C268.727 60.2969 268.703 56.8984 268.75 53.5703C268.797 50.2422 269.008 47.125 269.383 44.2188C269.477 44.1719 269.688 44.1484 270.016 44.1484C270.391 44.1016 270.648 44.0781 270.789 44.0781C271.445 44.0781 271.961 44.1953 272.336 44.4297C272.758 44.6172 272.969 45.0625 272.969 45.7656C272.969 48.5312 272.945 51.5547 272.898 54.8359C272.898 58.0703 272.875 61.375 272.828 64.75C272.828 68.0781 272.828 71.3828 272.828 74.6641C272.828 77.9453 272.875 80.9219 272.969 83.5938C273.016 84.3906 272.852 84.9062 272.477 85.1406C272.148 85.4219 271.727 85.5625 271.211 85.5625C270.648 85.5625 270.18 85.4219 269.805 85.1406C269.43 84.9062 269.289 84.3906 269.383 83.5938ZM267.836 33.25C267.836 32.6875 268.023 32.3125 268.398 32.125C268.773 31.9375 269.195 31.8438 269.664 31.8438C270.602 31.8438 271.188 32.1484 271.422 32.7578C271.656 33.3672 271.773 34.0703 271.773 34.8672C271.492 35.3828 271.141 35.7578 270.719 35.9922C270.297 36.1797 269.852 36.2266 269.383 36.1328C268.961 35.9922 268.586 35.6875 268.258 35.2188C267.977 34.75 267.836 34.0938 267.836 33.25ZM287.383 85.7031C287.148 84.625 287.219 83.2422 287.594 81.5547C288.016 79.8203 288.602 77.9453 289.352 75.9297C290.102 73.9141 290.969 71.8281 291.953 69.6719C292.984 67.5156 293.969 65.4766 294.906 63.5547C295.891 61.5859 296.758 59.8047 297.508 58.2109C298.258 56.6172 298.773 55.3516 299.055 54.4141C299.055 54.3672 299.055 54.3203 299.055 54.2734C299.102 54.1797 299.125 54.0859 299.125 53.9922C299.125 53.8984 299.102 53.8047 299.055 53.7109C299.055 53.6172 299.055 53.5469 299.055 53.5C297.742 54.0156 296.289 54.6016 294.695 55.2578C293.148 55.8672 291.578 56.4766 289.984 57.0859C288.391 57.6484 286.82 58.1875 285.273 58.7031C283.773 59.1719 282.391 59.5469 281.125 59.8281C280.938 59.9688 280.609 59.9219 280.141 59.6875C279.672 59.4531 279.227 59.1484 278.805 58.7734C278.383 58.3516 278.078 57.9297 277.891 57.5078C277.75 57.0391 277.914 56.6172 278.383 56.2422C279.93 56.2422 281.758 55.9375 283.867 55.3281C285.977 54.6719 288.109 53.9219 290.266 53.0781C292.469 52.2344 294.602 51.4141 296.664 50.6172C298.773 49.7734 300.625 49.1875 302.219 48.8594C303.766 48.8594 304.539 49.6328 304.539 51.1797C304.539 52.8672 304.234 54.5312 303.625 56.1719C303.062 57.7656 302.336 59.3359 301.445 60.8828C300.602 62.4297 299.664 63.9531 298.633 65.4531C297.648 66.9531 296.711 68.4766 295.82 70.0234C294.977 71.5703 294.25 73.1406 293.641 74.7344C293.031 76.3281 292.727 77.9688 292.727 79.6562V80.5L318.461 75.2266H318.953C319.609 75.2266 320.195 75.4375 320.711 75.8594C321.273 76.2344 321.672 76.6797 321.906 77.1953C322.188 77.6641 322.211 78.1562 321.977 78.6719C321.742 79.1875 321.156 79.5625 320.219 79.7969C320.031 79.7969 319.82 79.8203 319.586 79.8672C319.398 79.9141 318.953 80.0078 318.25 80.1484C317.594 80.2422 316.609 80.4062 315.297 80.6406C313.984 80.8281 312.133 81.1328 309.742 81.5547C307.398 81.9766 304.398 82.5391 300.742 83.2422C297.133 83.8984 292.68 84.7188 287.383 85.7031ZM284.359 33.3906C284.359 33.2031 284.453 33.0391 284.641 32.8984C284.828 32.7578 285.32 32.6875 286.117 32.6875C286.211 32.6875 286.352 32.7344 286.539 32.8281C286.773 32.9219 286.938 33.0156 287.031 33.1094L294.695 42.6719H294.977C295.633 42.6719 296.078 42.5547 296.312 42.3203L305.664 33.7422H306.086C306.93 33.7422 307.516 33.9531 307.844 34.375C308.172 34.7969 308.336 35.1719 308.336 35.5C308.336 35.8281 308.242 36.0859 308.055 36.2734C307.914 36.4141 307.398 36.5781 306.508 36.7656L295.469 45.9766C295.422 45.9766 295.352 46 295.258 46.0469C295.211 46.0469 295.164 46.0469 295.117 46.0469C294.648 46.0469 294.18 45.9531 293.711 45.7656C293.289 45.5781 293.031 45.4141 292.938 45.2734L284.43 33.7422C284.383 33.6953 284.359 33.6484 284.359 33.6016V33.3906ZM324.367 31C325.352 30.0625 326.125 29.6875 326.688 29.875C327.297 30.0625 327.742 30.6953 328.023 31.7734C328.305 32.8516 328.469 34.2578 328.516 35.9922C328.562 37.7266 328.539 39.6953 328.445 41.8984C328.398 44.0547 328.281 46.3516 328.094 48.7891C327.906 51.1797 327.742 53.5469 327.602 55.8906C327.461 58.1875 327.367 60.3906 327.32 62.5C327.273 64.6094 327.344 66.4375 327.531 67.9844H327.742C327.836 67.9844 327.906 67.9609 327.953 67.9141C330.391 65.4766 332.57 62.8984 334.492 60.1797C336.414 57.4609 338.148 54.9062 339.695 52.5156C341.242 50.0781 342.602 47.9688 343.773 46.1875C344.992 44.4062 346.117 43.1875 347.148 42.5312C347.852 42.5312 348.438 42.6484 348.906 42.8828C349.422 43.1172 349.68 43.6562 349.68 44.5C349.68 44.5938 349.656 44.7578 349.609 44.9922C349.609 45.1797 349.609 45.3203 349.609 45.4141C348.438 47.8047 347.148 50.2188 345.742 52.6562C344.336 55.0469 342.812 57.3672 341.172 59.6172C339.531 61.8672 337.75 64 335.828 66.0156C333.953 68.0312 331.914 69.8594 329.711 71.5C329.711 71.5469 329.688 71.6406 329.641 71.7812C329.641 71.875 329.641 71.9453 329.641 71.9922C329.641 72.4609 330.016 72.9766 330.766 73.5391C331.562 74.1016 332.547 74.6406 333.719 75.1562C334.938 75.6719 336.273 76.1875 337.727 76.7031C339.227 77.2188 340.68 77.6641 342.086 78.0391C343.539 78.4141 344.875 78.7188 346.094 78.9531C347.359 79.1875 348.344 79.3047 349.047 79.3047C349.047 79.4922 349.047 79.8438 349.047 80.3594C349.094 80.875 349.07 81.4141 348.977 81.9766C348.883 82.5391 348.719 83.0547 348.484 83.5234C348.25 83.9453 347.875 84.1562 347.359 84.1562H347.078C346.984 84.1562 346.914 84.1328 346.867 84.0859L326.758 76C326.711 78.7656 326.523 81.0156 326.195 82.75C325.867 84.4375 325.469 85.6797 325 86.4766C324.578 87.3203 324.109 87.7188 323.594 87.6719C323.125 87.625 322.703 87.25 322.328 86.5469L324.367 31ZM371.266 84.7188L353.125 55.6797C353.078 55.6328 353.031 55.4688 352.984 55.1875C352.938 54.8594 352.914 54.6016 352.914 54.4141C352.914 53.8047 353.008 53.2891 353.195 52.8672C353.43 52.3984 353.992 52.1641 354.883 52.1641C355.07 52.1641 355.398 52.2812 355.867 52.5156C356.336 52.7031 356.617 52.8906 356.711 53.0781C357.742 54.7188 358.797 56.5469 359.875 58.5625C361 60.5781 362.148 62.5938 363.32 64.6094C364.539 66.625 365.805 68.5703 367.117 70.4453C368.43 72.2734 369.812 73.8438 371.266 75.1562L372.953 47.5938C373 47.5938 373.117 47.5938 373.305 47.5938C373.539 47.5469 373.703 47.5234 373.797 47.5234C374.219 47.5234 374.641 47.5938 375.062 47.7344C375.484 47.8281 375.789 48.1328 375.977 48.6484C376.023 50.3359 376.023 52.4219 375.977 54.9062C375.977 57.3906 375.93 59.9453 375.836 62.5703C375.789 65.1953 375.719 67.7266 375.625 70.1641C375.578 72.5547 375.531 74.4766 375.484 75.9297C375.438 76.8672 375.344 78.2734 375.203 80.1484C375.109 82.0234 374.969 84.1328 374.781 86.4766C374.641 88.8672 374.453 91.375 374.219 94C374.031 96.625 373.844 99.1094 373.656 101.453C373.469 103.797 373.305 105.906 373.164 107.781C373.023 109.703 372.906 111.086 372.812 111.93H369.156L371.266 84.7188Z" fill="black"/>
</svg>
