<svg version="1" xmlns="http://www.w3.org/2000/svg" width="2730.667" height="2730.667" viewBox="0 0 2048.000000 2048.000000"><path d="M1756.8 248.5c-.2.2-2.3.6-4.8.9-18.5 2.5-33.2 9.6-46.5 22.3-15 14.2-35.3 42.9-75.6 106.5-14.1 22.3-38.8 62.3-40.5 65.4-.9 1.7-12.3 20.7-16.7 27.8-14.1 22.9-18.6 30-38.2 59.6-7.8 11.8-18.6 29.4-24 39-5.4 9.6-11.3 20-13 23-1.8 3-4.3 7.3-5.5 9.5-1.3 2.2-3.4 6-4.8 8.5-3.8 6.7-5.1 9-15.7 27.5-5.3 9.3-10.7 18.8-11.9 21-2.7 4.9-17.7 30.9-20.5 35.6-1.2 1.9-2.4 4.1-2.8 4.9-.4.8-3.4 6.2-6.8 12s-6.4 11.2-6.8 12c-.4.8-1.6 3-2.8 4.9-2.4 4-39 67.5-42.7 74.1-1.4 2.5-4.4 7.6-6.7 11.5-2.3 3.8-4.5 7.7-4.8 8.5-.4.8-1.6 2.9-2.7 4.7-1 1.8-7.6 13-14.6 25s-13.5 23.1-14.5 24.8c-1.1 1.6-2.2 3.7-2.6 4.5-.4.8-5 8.7-10.1 17.5-5.2 8.8-10.4 17.6-11.5 19.5-1.1 1.9-5.8 10-10.6 18-4.7 8-8.8 14.9-9 15.5-.2.5-3.5 6.1-7.4 12.5-3.8 6.3-7.9 13.1-9 15-1.7 3.1-45.9 76.5-49 81.4-.7 1.1-4 6.5-7.5 12-3.4 5.6-6.7 10.8-7.2 11.6-3 4.5-22.1 34.7-22.8 36-.4.8-2.9 4.9-5.6 9-2.7 4.1-7.4 11.4-10.5 16.3-4.9 7.7-30.4 46.8-33.1 50.7-6.6 9.9-13.7 20.5-14.5 21.8-1.4 2.3-8.1 12.2-15.7 23.2-3.5 5.2-9.6 14-13.3 19.5-3.8 5.5-7.2 10.1-7.7 10.3-.4.2-.8 1-.8 1.8s-.3 1.4-.7 1.4c-.5 0-1.6 1.2-2.5 2.8-.9 1.5-3.1 4.7-4.9 7.2-3.8 5.4-16.7 24.3-27 39.5-4.1 6-7.6 11.2-7.9 11.5-.3.3-.9 1.3-1.5 2.2-.5.9-8.6 13.2-17.8 27.3-9.2 14.1-18 28.2-19.4 31.3-7.6 16.2-21.2 33.2-33.7 42.1-13.1 9.3-16.8 10.7-21.8 8-9.5-5.1-12.4-22.6-8.5-50.9.3-1.9.8-6.2 1.2-9.5.4-3.3.9-6.7 1-7.5.1-.8.6-3.5 1-6 1.1-7.6 1.6-10.1 3.6-22 2.6-14.9 2.8-16 3.4-19 .3-1.4.8-3.9 1.1-5.5.2-1.7 1.4-7.5 2.5-13s2.2-11.1 2.4-12.5c.3-2 2.9-15.1 5.1-25.5.2-1.1.7-3.4 1-5 .3-1.7 1.4-6.8 2.4-11.5s2.2-10.1 2.5-12c.3-1.9.8-4.2 1-5 .2-.8.6-2.6.9-4 .2-1.4 1.1-5.5 2-9.3.9-3.7 1.8-8 2.1-9.6.3-1.6 1.8-8.9 3.4-16.3 3.1-13.8 4.4-19.9 4.6-20.8 0-.3.7-3 1.4-6s1.9-8.2 2.6-11.5c.8-3.3 1.6-7.1 1.9-8.5.2-1.4 1.3-6.3 2.4-11 2.2-9 6-26.1 6.6-29.6.2-1.1 1.1-4.9 2-8.5 1.4-5.8 13.8-60.9 15-66.9.3-1.4.7-3.4 1-4.5.8-3.5 8.6-38.9 9-41 .3-1.1.9-4 1.5-6.5.5-2.5 1.2-5.6 1.5-7 .6-3.6 4.4-20.8 5.6-25.5.5-2.2 2.4-10.5 4.1-18.5 1.7-8 3.2-15.2 3.4-16 .2-.8 1.7-8 3.3-16 1.7-8 3.6-16.5 4.2-19 .6-2.5 1.3-5.6 1.6-7 .3-1.4 2.7-13.3 5.5-26.5 8.2-39.3 15-71.8 15.5-74.5.6-3.1 2.3-11.7 2.9-15 .3-1.4.8-3.6 1-5 .6-4.2 2.3-12 4.3-21 1.1-4.7 2.8-12.1 3.7-16.5.9-4.4 2.1-9.4 2.6-11.1.5-1.7 1.2-4.2 1.4-5.5.3-1.3.9-4.7 1.5-7.4 1-5 1.2-6.6 2.5-15.8.4-2.7.8-5.7 1-6.6.2-1 .6-4.2 1-7.1.4-2.9.8-6.2 1.1-7.3.3-2 4-27.1 5-34.2.7-5.3 1.3-9.4 1.9-12.5.3-1.4.7-4.5 1-7 .3-2.5.7-5.6 1-7 .3-1.4.7-4.1.9-6 .8-5.7 3.4-23.4 4.2-28 .2-1.4.6-4.7 1-7.5.3-2.7 1-7.1 1.5-9.8 1.6-8.5 2.3-22.7 2.3-43.7 0-23.7-.8-33.2-4.5-50.5-3.9-18.2-10.3-35.2-19.4-51.1-5.2-9.1-20.1-32.2-21.4-33.4-.4-.3-2.6-3-5.1-6-9.9-12.2-23.2-24.2-36.2-32.9-38.9-25.9-70.8-34.5-89.5-24-11.4 6.4-22.8 16.9-34.6 31.9-3.7 4.7-7.1 9-7.5 9.5-1.9 2.3-20.9 31.6-26 40-17.3 28.5-37 65-47.2 87.5-2.8 6.3-6.8 14.9-8.7 19-1.9 4.1-4.9 10.9-6.6 15-3.3 8.2-9.2 17.2-17.3 26.5-4.9 5.7-21.2 28.4-22.7 31.5-.4.8-3.4 5.5-6.7 10.5-3.3 4.9-6.3 9.7-6.7 10.5-.4.8-2.2 3.9-4 6.8-7.5 11.7-39.2 66.2-49 84.2-1.7 3-8.3 15.2-14.8 27s-13 23.7-14.5 26.5c-1.5 2.7-6.4 11.7-11 20-8.2 14.8-11.4 20.7-17.2 31.5-1.7 3-8.8 15.8-15.8 28.5-7 12.6-16.9 30.6-22 40-5.1 9.3-11.2 20.4-13.5 24.5-7.6 13.4-8.7 15.4-12.8 23-2.2 4.1-4.7 8.6-5.5 10-.9 1.4-2.8 4.7-4.2 7.5-1.5 2.7-4.7 8.6-7.2 13-2.4 4.4-10.2 18.3-17.3 31-7.1 12.6-13.7 24.3-14.7 26-1 1.6-2.1 3.7-2.5 4.5-.4.8-5.4 9.8-11.1 20-5.8 10.2-11.8 21-13.5 24-1.6 3-3.3 5.9-3.7 6.5-.4.5-1.9 3-3.2 5.5-1.4 2.5-6.1 10.8-10.5 18.5-4.4 7.7-9.1 16-10.5 18.5-1.4 2.5-6.5 11.2-11.3 19.5-4.8 8.2-9.8 16.8-11 19-3.3 5.7-17.7 30.5-28 48-8.2 14.1-44 73.5-47.7 79.3-2.8 4.4-3.7 6.2-17.8 34-7.4 14.7-15.8 30.9-18.7 36.1-2.9 5.1-5.3 9.6-5.3 9.8 0 .2-1.7 3.5-3.9 7.1-2.1 3.7-4.7 8.3-5.8 10.2-1.7 3.1-9.3 16.1-12.6 21.5-5.1 8.3-18 27.6-20.1 30-1.4 1.6-2.6 3.2-2.7 3.5 0 .3-.2 1.2-.3 2-.2.8-.7 4.2-1.1 7.5-.5 3.3-.9 6.2-1 6.5-.1.3-.5 2.1-.9 4-4.3 19.2-17.4 43.6-38.2 71.1-3.5 4.6-18.2 26.3-22.1 32.5-24.8 39.8-47.9 83-66.1 123.4-6.4 14.3-13.4 40.3-15.9 58.7-.9 6.9-1.2 43.7-.3 48.8.4 2.7 1 7.3 1.4 10.1.9 7.5 5.2 23.4 9.1 33.4 5.9 15.3 13.9 28.5 26.6 43.6 17.1 20.6 32.8 32.7 49.5 38.4 6.2 2.2 15.5 3.4 17 2.3.9-.7 10.4-13.3 14.2-18.9 6-9 13.5-20.7 21.3-33.3 11.8-18.9 28.3-46.7 54.4-91.2.6-1 1.7-3 2.6-4.6.8-1.5 4.8-8.4 8.7-15.2 4-6.8 7.2-12.7 7.2-13.2s.4-.9.8-.9 1.3-1.2 1.9-2.8c.7-1.5 1.7-3.4 2.3-4.2 1.6-2.4 11-19.1 11-19.6 0-.3 1.6-3 3.5-6s3.5-5.6 3.5-5.9c0-.2 2-3.9 4.5-8.1 2.5-4.1 4.5-7.8 4.5-8 0-.2 1.1-2.1 2.3-4.2 1.3-2 4-6.6 5.9-10.2 2-3.6 8.4-15 14.2-25.4 5.8-10.3 10.6-19.2 10.6-19.7s.4-.9.9-.9 1.4-1.2 2-2.8c.6-1.5 2.6-5.4 4.4-8.7 3.4-5.9 19.3-34.4 25.7-46 5-9.1 8.1-14.6 10.3-18.5 1.1-1.9 3.3-6 5-9 1.6-3 4.9-8.9 7.2-13s5.8-10.4 7.7-14c2-3.6 4.5-8.2 5.6-10.2 1.2-2.1 3.8-6.8 5.8-10.5 2.1-3.7 5.7-10.3 8.1-14.5 2.3-4.3 4.3-8.2 4.3-8.8 0-.5.5-1 1-1 .6 0 1-.4 1-.9 0-.4 9.7-18.5 21.6-40.2 11.9-21.7 23.1-42.3 25.1-45.9 1.9-3.6 4.4-8.1 5.5-10 1.1-1.9 3.6-6.4 5.5-10 1.9-3.6 4.4-8.3 5.7-10.5 1.2-2.2 4.3-7.8 6.8-12.5s10.8-20 18.4-34c7.7-14 16.6-31.4 19.8-38.5 6.7-14.8 41.3-88.7 50.4-107.5 30-62.8 70.3-142.8 93.2-185.5 5.3-9.9 11.8-22 15.5-29 5.3-10 11.4-21.2 20.5-38 4.8-8.8 10.1-18.5 11.7-21.5 11.2-20.7 37.3-66.5 46.4-81.7 3.8-6.2 6.9-11.6 6.9-11.9 0-.3.9-1.7 1.9-3.2 4-5.7 11.1-17.1 11.1-17.9 0-.4 1.2-1.7 2.7-2.7 3.3-2.4 5.2-1.4 7 3.9 1 2.9 1.2 8.2.9 20-.5 19-1.7 25.5-10.1 51.5-4.6 14.7-33.9 123.1-41 152-.2.8-.8 3.3-1.3 5.5s-8.7 34.4-18 71.5c-13.9 54.9-25.7 102.7-27.7 112-.2.8-1.7 6.9-3.3 13.5-1.7 6.6-4.4 17.8-6.1 25-1.7 7.1-5.6 23.1-8.5 35.5-3 12.4-5.7 23.6-6 25-.3 1.4-3 13.1-6.1 26-7.4 31.3-9.4 40.1-9.9 44.1-.2 1.9-1.1 7.4-2 12.4-.8 4.9-1.8 11.5-2.1 14.5-.3 3-.8 6.2-1 7-.3.8-.7 3.5-1 5.9-.3 2.3-.7 5.5-.9 7-.3 1.4-.8 4.6-1.1 7.1-.3 2.5-.8 5.6-1 7-.3 2-2.3 17.1-4 30-.3 2.6-1.6 13.7-2 18-.1 1.4-.5 4.7-.9 7.5-.7 5.6-1.1 9.2-2.2 21-.3 4.4-.8 9.3-1 11-1 11.2-1.8 31.5-1.8 46 0 19.5.8 30.1 2.9 41.5.3 1.4.8 4.3 1.1 6.5 2.3 15.2 11.4 41.8 20.1 58.4 4.2 8.1 15.8 26.4 18.6 29.3.7.7 2.7 3.2 4.5 5.5 4 5.1 13.2 14.5 20.5 21.1 18.6 16.5 39.5 27.9 60.3 32.7 13.7 3.2 31.6 3.8 43.9 1.5 23.5-4.3 56-20 87.1-42.1 4.9-3.5 9.6-6.9 10.4-7.6.8-.6 7.4-5.8 14.5-11.5 19.2-15.1 42.8-35.1 59-49.8 21.3-19.5 28.9-26.6 44.4-42 15-14.9 32.4-33.5 42.1-44.9 2.5-2.9 5.2-6.1 6.1-7 .8-.9 3.3-3.9 5.5-6.6 2.1-2.8 4.1-5.2 4.4-5.5 3.1-3 13-17.7 17.8-26.4 2.4-4.4 5.8-9.9 7.5-12.2 1.8-2.3 4.1-5.5 5.2-7 1.1-1.5 5.6-7.4 10-13 4.4-5.5 9.1-11.6 10.5-13.4 1.4-1.8 3-3.8 3.5-4.4 4.9-5.1 42.9-55.2 54-71.1 1.2-1.7 4.1-5.7 6.4-9 3.7-5.2 11.4-16.7 22.6-34 8.2-12.6 16.6-28.2 22.8-42.5 10.6-24.1 20.4-43.9 28.6-57.5 1-1.7 2.7-4.4 3.7-6.2 5-8.5 15.7-25 23.2-35.7 9.1-12.9 10.4-14.9 15.4-24.6 1.9-3.6 5.5-10.3 8-15 14.1-26.2 18.7-34.7 24.6-46 3.5-6.9 7.1-13.2 7.8-14.1.8-.8 1.4-2.1 1.4-2.7 0-.6 1.3-3.4 2.9-6.1 1.7-2.8 6-10.8 9.7-17.8 3.7-7 7-13.3 7.4-13.8.4-.6 3.2-5.7 6.2-11.5 6.6-12.7 16.1-30.4 25.3-47.5 1.8-3.3 5.3-9.8 7.8-14.5 2.4-4.7 6.1-11.7 8.2-15.5 11.6-21.7 20.1-37.6 22.5-42 1.5-2.8 5.3-10 8.5-16 3.2-6.1 9.2-16.9 13.3-24 4.1-7.2 8.3-14.4 9.2-16 1-1.7 5.6-9.6 10.4-17.7 4.7-8.1 8.6-14.9 8.6-15.1 0-.2 2.5-4.5 5.5-9.5s5.5-9.4 5.5-9.8c0-.3.8-1.8 1.9-3.2 2.6-3.7 38.4-68.2 52.3-94.2 14.8-27.6 13.6-25.4 30.1-53.8 7.8-13.3 14.3-23.8 14.5-23.3.3.9-5.9 31.9-9.7 48.1-2.6 11-7.1 30.9-7.6 33.5-.3 1.1-1.1 4.7-2 8-.8 3.3-5 21.1-9.4 39.5-8.7 36.3-17 70.3-28 115-13.8 56.2-27.2 110.7-30.2 122.5-3 11.7-5 19.6-12.3 49.5-2 8-4 16.1-4.6 18-.5 1.9-2.8 10.9-5 20s-4.7 19-5.5 22c-.8 3-7.3 29.3-14.5 58.5-7.2 29.1-13.3 54.1-13.7 55.5-.3 1.4-.7 2.9-.8 3.5-.2.5-3.1 12.2-6.5 26-3.4 13.7-8.6 35.1-11.6 47.5-15.3 62.6-18.7 76.7-25.2 103.5-3.8 15.9-9.5 39.3-12.5 52-3.1 12.6-5.8 24.1-6 25.5-.3 1.4-1.3 5.4-2.2 9-1 3.6-1.9 7.4-2.1 8.5-.1 1.1-1.4 6.9-2.9 12.9s-2.8 11.6-3 12.5c-.2.9-3.7 16.2-7.9 34.1-4.1 17.9-7.7 33.6-7.9 35-.3 1.4-2.1 9.5-4 18-3.8 16.7-9.9 46.5-12.2 59.5-2.3 12.9-2.9 28.6-3 68 0 36.5.4 45.7 3 68 1.6 14.3 8.6 41.8 12.8 50.5 11.9 24.9 36.7 38.2 71.2 38.2 12.7 0 20.5-3 28-10.7 3.1-3.2 6.7-5.2 13.3-7.4 5.7-2 7.8-2 12.5-.5 2.9 1 7.4.6 9.9-.7 4.7-2.5 11.7-9.2 17.2-16.4 5.9-7.8 5.9-7.8 7.3-10.1.6-1 3.4-5.6 6.2-10 16.3-26.3 26.3-56.1 33.1-98.4.6-4.1 1.4-8.6 1.6-10 .5-2.8 1-16.3 1.9-55.5.3-14.3.8-28.5 1-31.5.2-3 .6-10 1-15.5.3-5.5.8-12 1-14.5.3-2.5.9-9.8 1.6-16.3.6-6.6 1.2-12.6 1.4-13.5.1-1 .6-4.6 1-8.2.3-3.6.8-7.2 1-8 .2-.8.7-3.5 1-6 3.4-24.4 12.6-58 20-73l3.2-6.5.7-23c.3-12.7.8-24.6 1-26.5.3-1.9.7-6.4 1-10 .3-3.6.8-8.1 1.1-10 .2-1.9.7-5.3 1-7.5 6.6-48.4 20.3-106.4 53.7-228.5 11.8-43.3 14.8-54.3 15.3-56.5.2-1.1 4.3-16.4 9-34 9.3-34.7 22.3-84.5 23.1-88.5.3-1.4 1.2-5 2-8 .9-3 1.7-6 1.8-6.5.5-2.5 6.9-29.6 8.2-34.5.8-3 1.7-6.6 1.9-8 .2-1.4 1.3-6.8 2.5-12 2.3-9.9 3.9-15.5 14.5-50.7 12.3-40.5 31.9-110.9 36.5-131.3.4-1.9 2-8.2 3.5-14 1.5-5.8 2.8-11.2 3-12 .2-.8 1.7-7.4 3.5-14.5 1.7-7.2 3.4-14.1 3.6-15.5.3-1.4 1.1-4.8 1.9-7.5.7-2.8 1.6-6.4 1.9-8 .3-1.7.7-3.9 1-5 .6-2.8 8.8-39 14.7-65 2.8-12.1 5.2-23.1 5.4-24.5.2-1.4 1.5-8.1 3-15 3.3-15.5 3.1-14.6 4-20 .4-2.5.9-5.4 1.1-6.5 1.4-6.8 6.5-36.8 7-41 .3-2.8.7-6.1.9-7.5 2.9-18.8 4-51.6 2.3-65.2-5.2-40.2-33-86.8-68.8-115.3-20.2-16-52-31.6-71.5-35-1.6-.2-4.1-.7-5.5-1-2.7-.6-20.7-1.4-21.2-1z"/></svg>