<?xml version="1.0" standalone="no"?>
<!DOCTYPE svg PUBLIC "-//W3C//DTD SVG 20010904//EN"
 "http://www.w3.org/TR/2001/REC-SVG-20010904/DTD/svg10.dtd">
<svg version="1.0" xmlns="http://www.w3.org/2000/svg"
 width="512.000000pt" height="512.000000pt" viewBox="0 0 512.000000 512.000000"
 preserveAspectRatio="xMidYMid meet">
<metadata>
Created by potrace 1.11, written by Peter Selinger 2001-2013
</metadata>
<g transform="translate(0.000000,512.000000) scale(0.100000,-0.100000)"
fill="#000000" stroke="none">
<path d="M0 2560 l0 -2560 2560 0 2560 0 0 2560 0 2560 -2560 0 -2560 0 0
-2560z m2777 301 l623 -1004 0 -318 0 -319 -127 0 -128 1 -710 1143 -710 1144
-3 181 -2 181 217 -2 217 -3 623 -1004z m623 219 c0 -669 -2 -790 -14 -790 -8
0 -127 182 -265 404 l-251 404 0 386 0 386 265 0 265 0 0 -790z m-1399 -405
l249 -400 0 -527 0 -528 -265 0 -265 0 0 931 c0 851 1 930 16 927 9 -2 128
-183 265 -403z"/>
</g>
</svg>
