<?xml version="1.0" encoding="iso-8859-1"?>
<!-- Generator: Adobe Illustrator 19.0.0, SVG Export Plug-In . SVG Version: 6.00 Build 0)  -->
<svg version="1.1" id="Capa_1" xmlns="http://www.w3.org/2000/svg" xmlns:xlink="http://www.w3.org/1999/xlink" x="0px" y="0px"
	 viewBox="0 0 469.504 469.504" style="enable-background:new 0 0 469.504 469.504;" xml:space="preserve">
<path style="fill:#4CAF50;" d="M436.615,28.096c-1.649-3.989-5.539-6.591-9.856-6.592c-80.043,0-153.067,25.237-195.307,67.477
	c-37.702,38.788-36.821,100.794,1.967,138.496c38.011,36.947,98.518,36.947,136.529,0c18.261-18.261,23.808-51.989,29.696-87.68
	c6.4-38.4,12.8-78.293,34.667-100.075C437.36,36.67,438.269,32.081,436.615,28.096z"/>
<path style="fill:#388E3C;" d="M213.426,320.171c-4.869-0.004-9.118-3.304-10.325-8.021
	c-12.032-47.061-48.789-174.677-73.984-199.872c-4.093-4.237-3.975-10.99,0.262-15.083c4.134-3.992,10.687-3.992,14.821,0
	c25.131,25.131,54.293,118.443,69.461,172.331c20.607-59.917,54.405-114.443,98.901-159.552c4.093-4.237,10.845-4.354,15.083-0.262
	c4.237,4.093,4.354,10.845,0.262,15.083c-0.086,0.089-0.173,0.176-0.262,0.262c-50.799,51.628-86.646,116.066-103.723,186.453
	c-0.937,4.91-5.159,8.51-10.155,8.661H213.426z"/>
<path style="fill:#455A64;" d="M349.959,303.104c-2.014-2.686-5.176-4.267-8.533-4.267h-256
	c-5.891,0.007-10.661,4.788-10.654,10.679c0.001,0.992,0.141,1.978,0.414,2.932l42.667,149.333c1.312,4.568,5.487,7.717,10.24,7.723
	h170.667c4.753-0.005,8.928-3.155,10.24-7.723l42.667-149.333C352.592,309.238,351.96,305.78,349.959,303.104z"/>
<path style="fill:#4CAF50;" d="M144.199,35.456C116.228,11.008,79.865-1.641,42.759,0.171C36.868,0.16,32.084,4.927,32.074,10.818
	c-0.005,2.84,1.123,5.565,3.134,7.571c9.525,13.954,15.004,30.272,15.829,47.147c0.757,16.844,6.438,33.095,16.341,46.741
	c21.591,20.824,55.976,20.203,76.8-1.388c20.294-21.041,20.294-54.371,0-75.412L144.199,35.456z"/>
<g>
</g>
<g>
</g>
<g>
</g>
<g>
</g>
<g>
</g>
<g>
</g>
<g>
</g>
<g>
</g>
<g>
</g>
<g>
</g>
<g>
</g>
<g>
</g>
<g>
</g>
<g>
</g>
<g>
</g>
</svg>
