<svg width="193" height="160" viewBox="0 0 193 160" fill="none" xmlns="http://www.w3.org/2000/svg">
<g clip-path="url(#clip0)">
<rect width="193" height="160" fill="white"/>
<path fill-rule="evenodd" clip-rule="evenodd" d="M114.208 129.833C114.025 128.275 113.75 126.808 113.75 125.25C113.75 99.95 134.283 79.4167 159.583 79.4167C168.017 79.4167 175.717 81.8 182.5 85.7417V19.8333C182.5 9.75 174.25 1.5 164.167 1.5H35.8333C25.75 1.5 17.5 9.75 17.5 19.8333V111.5C17.5 121.583 25.75 129.833 35.8333 129.833H114.208ZM35.8333 38.1667L100 70.25L164.167 38.1667V19.8333L100 51.9167L35.8333 19.8333V38.1667Z" fill="#39AC37"/>
<path fill-rule="evenodd" clip-rule="evenodd" d="M159.583 93.1667C141.892 93.1667 127.5 107.558 127.5 125.25C127.5 142.942 141.892 157.333 159.583 157.333C177.275 157.333 191.667 142.942 191.667 125.25C191.667 107.558 177.275 93.1667 159.583 93.1667ZM141.25 129.833H177.917V120.667H141.25V129.833Z" fill="#39AC37"/>
</g>
<defs>
<clipPath id="clip0">
<rect width="193" height="160" fill="white"/>
</clipPath>
</defs>
</svg>
