<svg width="21" height="20" viewBox="0 0 21 20" fill="none" xmlns="http://www.w3.org/2000/svg">
<path d="M20 7.66966C19.9368 7.48674 19.822 7.32608 19.6693 7.20716C19.5167 7.08823 19.3328 7.01615 19.14 6.99966L13.45 6.16966L10.9 0.999657C10.8181 0.830586 10.6902 0.687999 10.5311 0.58823C10.3719 0.488462 10.1878 0.435547 9.99998 0.435547C9.81212 0.435547 9.62806 0.488462 9.46889 0.58823C9.30971 0.687999 9.18186 0.830586 9.09998 0.999657L6.54998 6.15966L0.859977 6.99966C0.6749 7.02596 0.500902 7.10362 0.357728 7.22381C0.214554 7.34401 0.107937 7.50193 0.0499774 7.67966C-0.00307759 7.85333 -0.00783865 8.03817 0.0362052 8.21435C0.080249 8.39052 0.171435 8.55138 0.299977 8.67966L4.42998 12.6797L3.42998 18.3597C3.3896 18.5481 3.40453 18.7442 3.47296 18.9243C3.54139 19.1044 3.66041 19.261 3.81571 19.3751C3.971 19.4891 4.15595 19.5559 4.34831 19.5674C4.54066 19.5789 4.73224 19.5345 4.89998 19.4397L9.99998 16.7697L15.1 19.4397C15.2403 19.5188 15.3988 19.5602 15.56 19.5597C15.7718 19.5604 15.9784 19.4939 16.15 19.3697C16.3051 19.2585 16.4252 19.1053 16.4961 18.9281C16.567 18.7509 16.5857 18.5571 16.55 18.3697L15.55 12.6897L19.68 8.68966C19.8244 8.56734 19.9311 8.40656 19.9877 8.22601C20.0444 8.04545 20.0486 7.85253 20 7.66966ZM13.85 11.6697C13.7342 11.7821 13.6474 11.9208 13.5969 12.074C13.5464 12.2273 13.5337 12.3905 13.56 12.5497L14.28 16.7497L10.52 14.7497C10.3738 14.6774 10.213 14.6398 10.05 14.6398C9.88694 14.6398 9.72611 14.6774 9.57998 14.7497L5.81998 16.7497L6.53998 12.5497C6.56622 12.3905 6.55354 12.2273 6.50305 12.074C6.45255 11.9208 6.36572 11.7821 6.24998 11.6697L3.24998 8.66966L7.45998 8.05966C7.62198 8.03712 7.77598 7.9752 7.90848 7.87931C8.04098 7.78342 8.14794 7.65649 8.21998 7.50966L9.99998 3.69966L11.88 7.51966C11.952 7.66649 12.059 7.79342 12.1915 7.88931C12.324 7.9852 12.478 8.04712 12.64 8.06966L16.85 8.67966L13.85 11.6697Z" fill="black"/>
</svg>
