<svg width="193" height="160" viewBox="0 0 193 160" fill="none" xmlns="http://www.w3.org/2000/svg">
<g clip-path="url(#clip0)">
<rect width="193" height="160" fill="white"/>
<path d="M74 97H2V109H74V97ZM74 73H2V85H74V73ZM98 121V97H86V121H62V133H86V157H98V133H122V121H98ZM2 133H50V121H2V133Z" fill="#39AC37"/>
<path d="M111 17C94.4333 17 81 30.5005 81 47.15C81 61.1195 90.4667 72.8445 103.3 76.2615L111 84L118.7 76.2615C131.533 72.8445 141 61.1195 141 47.15C141 30.5005 127.567 17 111 17ZM111 23.7C116.533 23.7 121 28.189 121 33.75C121 39.311 116.533 43.8 111 43.8C105.467 43.8 101 39.311 101 33.75C101 28.189 105.467 23.7 111 23.7ZM111 71.605C102.667 71.605 95.3 67.317 91 60.818C91.1 54.1515 104.333 50.5 111 50.5C117.633 50.5 130.9 54.1515 131 60.818C126.7 67.317 119.333 71.605 111 71.605Z" fill="#FAA935"/>
</g>
<defs>
<clipPath id="clip0">
<rect width="193" height="160" fill="white"/>
</clipPath>
</defs>
</svg>
