<svg width="193" height="160" viewBox="0 0 193 160" fill="none" xmlns="http://www.w3.org/2000/svg">
<rect width="193" height="160" fill="white"/>
<g clip-path="url(#clip0)">
<path d="M26.9498 118.084C33.1032 118.084 38.1072 123.088 38.1072 129.241C38.1072 135.395 33.1032 140.399 26.9498 140.399C20.7963 140.399 15.7924 135.395 15.7924 129.241C15.7924 123.088 20.7963 118.084 26.9498 118.084ZM26.9498 134.82C30.0265 134.82 32.5285 132.318 32.5285 129.241C32.5285 126.165 30.0265 123.663 26.9498 123.663C23.873 123.663 21.3711 126.165 21.3711 129.241C21.3711 132.318 23.873 134.82 26.9498 134.82Z" fill="#FCCD8A"/>
<path d="M86.3432 120.056L90.2875 116.112L103.417 129.242L90.2875 142.371L86.3432 138.427L92.739 132.031H71.5792V126.452H92.739L86.3432 120.056Z" fill="#1E1E1E" fill-opacity="0.5"/>
<path d="M130.155 39.9826C130.155 38.4463 128.905 37.1933 127.366 37.1933H114.574L120.97 43.5892L117.026 47.5335L103.896 34.4039L117.026 21.2744L120.97 25.2187L114.574 31.6146H127.366C131.979 31.6146 135.734 35.3696 135.734 39.9826V90.1908H130.155V39.9826Z" fill="#1E1E1E" fill-opacity="0.5"/>
<path d="M26.9496 39.9825V75.0891L33.3455 68.6932L37.2898 72.6375L24.1603 85.767L11.0307 72.6375L14.975 68.6932L21.3709 75.0891V39.9825C21.3709 35.3695 25.1259 31.6145 29.7389 31.6145H43.6857V37.1932H29.7389C28.1999 37.1932 26.9496 38.4462 26.9496 39.9825Z" fill="#1E1E1E" fill-opacity="0.5"/>
<g clip-path="url(#clip1)">
<path d="M156.38 107.494L147.868 98.0359H109.092V158.565H156.38V107.494H156.38ZM112.875 154.782V101.819H146.169V109.33H152.597V154.782H112.875Z" fill="#30E7B6"/>
<path d="M145.982 132.849H119.5V136.632H145.982V132.849Z" fill="#30E7B6"/>
<path d="M145.982 139.426H119.5V143.209H145.982V139.426Z" fill="#30E7B6"/>
<path d="M145.982 113.509H132.741V117.292H145.982V113.509Z" fill="#30E7B6"/>
<path d="M145.982 120.085H132.741V123.868H145.982V120.085Z" fill="#30E7B6"/>
<path d="M145.982 126.66H119.5V130.443H145.982V126.66Z" fill="#30E7B6"/>
<path d="M129.857 113.512H119.489V123.88H129.857V113.512Z" fill="#30E7B6"/>
</g>
<path d="M55.1265 124.199H50.6981C50.081 121.076 48.8589 118.171 47.1529 115.619L50.2867 112.472C51.0489 111.706 51.0489 110.467 50.2867 109.701L46.5237 105.922C45.7615 105.157 44.5273 105.157 43.765 105.922L40.6313 109.069C38.0904 107.356 35.1986 106.129 32.089 105.509V101.073C32.089 99.9919 31.2179 99.1169 30.141 99.1169H24.8293C23.7525 99.1169 22.8813 99.9919 22.8813 101.073V105.521C19.7717 106.141 16.8799 107.368 14.339 109.082L11.2053 105.934C10.443 105.169 9.20886 105.169 8.44659 105.934L4.68364 109.701C3.92137 110.467 3.92137 111.706 4.68364 112.472L7.81741 115.619C6.99465 116.847 6.29287 118.159 5.7121 119.532H15.6942C18.4408 116.02 22.6998 113.76 27.4912 113.76C35.7794 113.76 42.5067 120.517 42.5067 128.841C42.5067 137.165 35.7794 143.922 27.4912 143.922C22.6998 143.922 18.4408 141.661 15.6942 138.149H5.7121C6.29287 139.523 6.99465 140.835 7.81741 142.062L4.68364 145.198C3.92137 145.963 3.92137 147.203 4.68364 147.968L8.44659 151.748C9.20886 152.513 10.443 152.513 11.2053 151.748L14.339 148.6C16.8799 150.314 19.7717 151.541 22.8813 152.161V156.608C22.8813 157.69 23.7525 158.565 24.8293 158.565H30.141C31.2179 158.565 32.089 157.69 32.089 156.608V152.161C35.1986 151.541 38.0904 150.314 40.6313 148.6L43.765 151.748C44.5273 152.513 45.7615 152.513 46.5237 151.748L50.2867 147.968C51.0489 147.203 51.0489 145.963 50.2867 145.198L47.1529 142.062C48.8589 139.51 50.081 136.606 50.6981 133.483H55.1265C56.2033 133.483 57.0745 132.608 57.0745 131.527V126.18C57.0866 125.074 56.2033 124.199 55.1265 124.199Z" fill="#FCCD8A"/>
<path d="M74.3685 4C60.6402 4 49.5084 15.1076 49.5084 28.806C49.5084 40.2994 57.3531 49.9462 67.9877 52.7576L74.3685 59.1244L80.7492 52.7576C91.3838 49.9462 99.2285 40.2994 99.2285 28.806C99.2285 15.1076 88.0967 4 74.3685 4ZM74.3685 9.51244C78.9538 9.51244 82.6551 13.2058 82.6551 17.7811C82.6551 22.3564 78.9538 26.0498 74.3685 26.0498C69.7832 26.0498 66.0818 22.3564 66.0818 17.7811C66.0818 13.2058 69.7832 9.51244 74.3685 9.51244ZM74.3685 48.9264C67.4629 48.9264 61.3584 45.3984 57.7951 40.0514C57.878 34.5665 68.844 31.5622 74.3685 31.5622C79.8653 31.5622 90.8589 34.5665 90.9418 40.0514C87.3785 45.3984 81.274 48.9264 74.3685 48.9264Z" fill="#4DB5FF" fill-opacity="0.72"/>
</g>
<defs>
<clipPath id="clip0">
<rect width="160" height="160" fill="white" transform="matrix(-1 0 0 1 160 0)"/>
</clipPath>
<clipPath id="clip1">
<rect width="60.5288" height="60.5288" fill="white" transform="translate(102.471 98.0359)"/>
</clipPath>
</defs>
</svg>
