<svg width="193" height="160" viewBox="0 0 193 160" fill="none" xmlns="http://www.w3.org/2000/svg">
<g clip-path="url(#clip0)">
<rect width="193" height="160" fill="white"/>
<path d="M121.842 77.9213L84.3796 52.168C83.1627 51.3128 81.4853 52.2009 81.4853 53.6809V66.903H20.1442C17.8419 66.903 16 68.7448 16 71.0472V87.8214C16 90.1238 17.8419 91.9656 20.1442 91.9656H81.4853V105.188C81.4853 106.701 83.1627 107.589 84.3796 106.734L121.842 80.9802C122.927 80.2562 122.927 78.6778 121.842 77.9213Z" fill="#39AC37"/>
<path d="M171.704 66.9356H159.666C157.989 58.4827 154.667 50.6218 150.029 43.7148L158.548 35.1961C160.62 33.124 160.62 29.7692 158.548 27.6971L148.319 17.4681C146.247 15.396 142.892 15.396 140.82 17.4681L132.301 25.9867C125.394 21.3492 117.533 18.0272 109.08 16.3498V4.34471C109.08 1.41744 106.712 -0.950684 103.785 -0.950684H89.346C86.4188 -0.950684 84.0506 1.41744 84.0506 4.34471V16.3827C75.5978 18.0601 67.7369 21.3821 60.8299 26.0196L52.3112 17.501C50.2391 15.4289 46.8842 15.4289 44.8121 17.501L34.5831 27.6971C32.511 29.7692 32.511 33.124 34.5831 35.1961L43.1018 43.7148C40.8652 47.0368 38.9576 50.5889 37.3788 54.3056H64.5136C71.9798 44.8002 83.5573 38.6825 96.582 38.6825C119.112 38.6825 137.399 56.9697 137.399 79.4998C137.399 102.03 119.112 120.317 96.582 120.317C83.5573 120.317 71.9798 114.199 64.5136 104.694H37.3788C38.9576 108.411 40.8652 111.963 43.1018 115.285L34.5831 123.771C32.511 125.843 32.511 129.198 34.5831 131.27L44.8121 141.499C46.8842 143.571 50.2391 143.571 52.3112 141.499L60.8299 132.98C67.7369 137.618 75.5978 140.94 84.0506 142.617V154.655C84.0506 157.582 86.4188 159.95 89.346 159.95H103.785C106.712 159.95 109.08 157.582 109.08 154.655V142.617C117.533 140.94 125.394 137.618 132.301 132.98L140.82 141.499C142.892 143.571 146.247 143.571 148.319 141.499L158.548 131.27C160.62 129.198 160.62 125.843 158.548 123.771L150.029 115.285C154.667 108.378 157.989 100.517 159.666 92.064H171.704C174.631 92.064 177 89.6959 177 86.7686V72.2968C177.032 69.304 174.631 66.9356 171.704 66.9356Z" fill="black"/>
</g>
<defs>
<clipPath id="clip0">
<rect width="193" height="160" fill="white"/>
</clipPath>
</defs>
</svg>
