<svg width="715" height="232" viewBox="0 0 715 232" fill="none" xmlns="http://www.w3.org/2000/svg">
<g clip-path="url(#clip0)">
<path d="M275.954 184.235L264.884 154.313C264.482 153.225 263.68 152.36 262.627 151.876C261.574 151.391 260.395 151.346 259.308 151.748L205.329 171.718C204.242 172.12 203.377 172.922 202.892 173.975C202.408 175.028 202.363 176.207 202.765 177.294L213.835 207.216C214.237 208.303 215.038 209.169 216.092 209.653C216.67 209.919 217.285 210.052 217.903 210.052C218.411 210.052 218.92 209.962 219.411 209.78L273.39 189.811H273.39C275.634 188.98 276.784 186.479 275.954 184.235ZM256.341 157.473L239.597 181.409L211.307 174.134L256.341 157.473ZM217.122 203.596L207.52 177.641L229.759 183.361L217.122 203.596ZM221.825 204.26L234.168 184.495L239.973 185.988C240.153 186.033 240.335 186.057 240.513 186.057C241.212 186.057 241.88 185.719 242.293 185.131L245.728 180.216L267.964 187.191L221.825 204.26ZM248.339 176.487L261.499 157.669L271.104 183.628L248.339 176.487Z" fill="black"/>
<path d="M204.504 207.81C204.088 206.686 202.84 206.113 201.716 206.528L193.539 209.553C192.415 209.969 191.841 211.217 192.257 212.341C192.581 213.217 193.41 213.759 194.292 213.759C194.542 213.759 194.797 213.715 195.045 213.623L203.222 210.598C204.346 210.183 204.92 208.934 204.504 207.81Z" fill="black"/>
<path d="M193.437 187.666C193.021 186.542 191.773 185.968 190.649 186.383L185.601 188.251C184.477 188.667 183.903 189.915 184.319 191.039C184.643 191.915 185.472 192.456 186.354 192.456C186.604 192.456 186.859 192.413 187.107 192.321L192.155 190.453C193.279 190.038 193.853 188.79 193.437 187.666Z" fill="black"/>
<path d="M187.18 204.103C186.764 202.979 185.515 202.405 184.392 202.821L180.641 204.208C179.517 204.624 178.943 205.873 179.359 206.996C179.683 207.872 180.512 208.414 181.394 208.414C181.644 208.414 181.899 208.37 182.147 208.278L185.897 206.891C187.022 206.475 187.595 205.227 187.18 204.103Z" fill="black"/>
</g>
<g clip-path="url(#clip1)">
<path d="M267.114 98.0214L275.806 67.117C276.122 65.9942 275.982 64.8155 275.411 63.7982C274.84 62.7809 273.908 62.0466 272.785 61.7309L217.035 46.0495C215.912 45.7336 214.733 45.8741 213.716 46.4445C212.699 47.0153 211.964 47.9479 211.649 49.0707L202.956 79.9751C202.64 81.0979 202.78 82.2766 203.351 83.2941C203.664 83.8523 204.086 84.325 204.589 84.6904C205.002 84.991 205.47 85.2189 205.977 85.3615L261.728 101.043L261.728 101.043C264.045 101.695 266.461 100.339 267.114 98.0214ZM266.983 64.6353L239.193 74.2122L220.471 51.5524L266.983 64.6353ZM207.773 78.9738L215.314 52.1669L230.03 69.9796L207.773 78.9738ZM211.208 82.2963L232.948 73.5108L236.79 78.1608C236.91 78.3046 237.044 78.4318 237.189 78.5371C237.757 78.9505 238.502 79.0703 239.185 78.8356L244.889 76.8674L258.861 95.7004L211.208 82.2963ZM249.22 75.3767L271.065 67.8464L263.526 94.6585L249.22 75.3767Z" fill="black"/>
<path d="M195.009 74.9388C195.336 73.778 194.659 72.5722 193.499 72.2458L185.053 69.8702C183.892 69.5438 182.687 70.2202 182.36 71.3809C182.106 72.2854 182.46 73.2168 183.178 73.7388C183.382 73.8866 183.615 74.0018 183.871 74.0738L192.316 76.4492C193.477 76.7762 194.683 76.0997 195.009 74.9388Z" fill="black"/>
<path d="M197.919 51.9944C198.246 50.8333 197.569 49.628 196.409 49.3012L191.195 47.8349C190.034 47.5085 188.829 48.1848 188.502 49.3456C188.248 50.25 188.602 51.1816 189.32 51.7035C189.524 51.8513 189.757 51.9665 190.013 52.0386L195.226 53.5049C196.387 53.8317 197.593 53.1553 197.919 51.9944Z" fill="black"/>
<path d="M183.101 61.6715C183.428 60.5104 182.751 59.3048 181.591 58.9784L177.717 57.8888C176.556 57.5624 175.351 58.2388 175.024 59.3994C174.77 60.3038 175.124 61.2354 175.842 61.7574C176.045 61.9052 176.278 62.0204 176.535 62.0924L180.408 63.182C181.569 63.5088 182.775 62.8324 183.101 61.6715Z" fill="black"/>
</g>
<g clip-path="url(#clip2)">
<path d="M205.254 140.538L205.654 108.66C205.669 107.501 205.231 106.407 204.422 105.577C203.614 104.748 202.531 104.283 201.372 104.269L143.866 103.547C142.707 103.532 141.613 103.97 140.784 104.778C139.954 105.587 139.49 106.67 139.475 107.828L139.075 139.706C139.06 140.865 139.498 141.959 140.306 142.789C140.75 143.244 141.276 143.589 141.853 143.81C142.327 143.992 142.834 144.091 143.357 144.097L200.863 144.819L200.864 144.819C203.254 144.849 205.224 142.928 205.254 140.538ZM196.553 108.545L172.355 124.87L148.575 107.943L196.553 108.545ZM143.439 137.508L143.786 109.857L162.479 123.164L143.439 137.508ZM147.587 139.813L166.185 125.801L171.064 129.275C171.216 129.382 171.378 129.47 171.543 129.534C172.195 129.784 172.94 129.708 173.535 129.307L178.501 125.954L196.742 140.431L147.587 139.813ZM182.273 123.412L201.293 110.577L200.948 138.233L182.273 123.412Z" fill="black"/>
<path d="M130.159 136.916C130.174 135.719 129.214 134.736 128.018 134.721L119.306 134.612C118.109 134.597 117.126 135.555 117.111 136.753C117.099 137.686 117.678 138.488 118.501 138.804C118.734 138.894 118.987 138.944 119.252 138.948L127.963 139.057C129.161 139.072 130.143 138.114 130.159 136.916Z" fill="black"/>
<path d="M127.056 114.159C127.071 112.962 126.112 111.979 124.916 111.964L119.538 111.897C118.34 111.882 117.358 112.84 117.343 114.037C117.331 114.97 117.91 115.773 118.733 116.089C118.966 116.179 119.219 116.229 119.484 116.233L124.861 116.3C126.058 116.315 127.041 115.357 127.056 114.159Z" fill="black"/>
<path d="M115.328 127.248C115.343 126.051 114.384 125.068 113.187 125.053L109.191 125.003C107.994 124.988 107.011 125.946 106.996 127.144C106.984 128.077 107.563 128.879 108.386 129.195C108.619 129.285 108.872 129.336 109.137 129.339L113.133 129.389C114.33 129.404 115.313 128.446 115.328 127.248Z" fill="black"/>
</g>
<g clip-path="url(#clip3)">
<path d="M696.254 137.538L696.654 105.66C696.669 104.501 696.231 103.407 695.422 102.577C694.614 101.748 693.531 101.283 692.372 101.269L634.866 100.547C633.707 100.532 632.613 100.97 631.784 101.778C630.954 102.587 630.49 103.67 630.475 104.828L630.075 136.706C630.06 137.865 630.498 138.959 631.306 139.789C631.75 140.244 632.276 140.589 632.853 140.81C633.327 140.992 633.834 141.091 634.357 141.097L691.863 141.819L691.864 141.819C694.254 141.849 696.224 139.928 696.254 137.538ZM687.553 105.545L663.355 121.87L639.575 104.943L687.553 105.545ZM634.439 134.508L634.786 106.857L653.479 120.164L634.439 134.508ZM638.587 136.813L657.185 122.801L662.064 126.275C662.216 126.382 662.378 126.47 662.543 126.534C663.195 126.784 663.94 126.708 664.535 126.307L669.501 122.954L687.742 137.431L638.587 136.813ZM673.273 120.412L692.293 107.577L691.948 135.233L673.273 120.412Z" fill="black"/>
<path d="M621.159 133.916C621.174 132.719 620.214 131.736 619.018 131.721L610.306 131.612C609.109 131.597 608.126 132.555 608.111 133.753C608.099 134.686 608.678 135.488 609.501 135.804C609.734 135.894 609.987 135.944 610.252 135.948L618.963 136.057C620.161 136.072 621.143 135.114 621.159 133.916Z" fill="black"/>
<path d="M618.056 111.159C618.071 109.962 617.112 108.979 615.916 108.964L610.538 108.897C609.34 108.882 608.358 109.84 608.343 111.037C608.331 111.97 608.91 112.773 609.733 113.089C609.966 113.179 610.219 113.229 610.484 113.233L615.861 113.3C617.058 113.315 618.041 112.357 618.056 111.159Z" fill="black"/>
<path d="M606.328 124.248C606.343 123.051 605.384 122.068 604.187 122.053L600.191 122.003C598.994 121.988 598.011 122.946 597.996 124.144C597.984 125.077 598.563 125.879 599.386 126.195C599.619 126.285 599.872 126.336 600.137 126.339L604.133 126.389C605.33 126.404 606.313 125.446 606.328 124.248Z" fill="black"/>
</g>
<g clip-path="url(#clip4)">
<path d="M132.756 175.206L128.973 154.699C128.836 153.954 128.416 153.307 127.792 152.878C127.168 152.448 126.414 152.287 125.669 152.425L88.6759 159.25C87.9307 159.387 87.2838 159.806 86.8541 160.43C86.4245 161.054 86.2636 161.809 86.4011 162.554L90.1844 183.06C90.3218 183.805 90.7412 184.452 91.3654 184.882C91.7078 185.118 92.0892 185.272 92.487 185.341C92.8142 185.398 93.1522 185.397 93.4886 185.335L130.482 178.51L130.482 178.51C132.02 178.226 133.04 176.744 132.756 175.206ZM123.118 155.78L109.66 169.322L92.2552 161.474L123.118 155.78ZM92.7063 181.097L89.4246 163.309L103.106 169.479L92.7063 181.097ZM95.66 182.05L105.818 170.702L109.39 172.312C109.501 172.362 109.616 172.398 109.73 172.417C110.18 172.496 110.648 172.352 110.98 172.02L113.741 169.238L127.281 176.216L95.66 182.05ZM115.839 167.129L126.418 156.483L129.701 174.273L115.839 167.129Z" fill="black"/>
<path d="M84.1092 182.4C83.9672 181.63 83.2271 181.12 82.4573 181.262L76.8533 182.296C76.0829 182.439 75.5738 183.178 75.7158 183.948C75.8265 184.549 76.2999 184.99 76.868 185.089C77.029 185.117 77.1978 185.117 77.3679 185.086L82.9717 184.052C83.7423 183.91 84.2514 183.17 84.1092 182.4Z" fill="black"/>
<path d="M79.2344 168.19C79.0922 167.42 78.3524 166.911 77.5824 167.053L74.1231 167.691C73.3528 167.833 72.8437 168.573 72.9857 169.343C73.0964 169.943 73.5699 170.385 74.1379 170.483C74.2988 170.511 74.4677 170.512 74.6378 170.48L78.097 169.842C78.8673 169.7 79.3766 168.96 79.2344 168.19Z" fill="black"/>
<path d="M73.3672 178.076C73.225 177.305 72.4853 176.796 71.7152 176.938L69.1448 177.412C68.3744 177.555 67.8654 178.294 68.0074 179.064C68.1181 179.665 68.5914 180.106 69.1596 180.205C69.3205 180.233 69.4893 180.233 69.6594 180.202L72.2298 179.727C73.0003 179.585 73.5094 178.846 73.3672 178.076Z" fill="black"/>
</g>
<g clip-path="url(#clip5)">
<path d="M58.8462 125.522L61.0083 108.184C61.0869 107.554 60.9154 106.931 60.5254 106.43C60.1355 105.929 59.574 105.61 58.9439 105.532L27.6672 101.631C27.0372 101.553 26.4144 101.724 25.9134 102.114C25.4125 102.504 25.0933 103.066 25.0148 103.695L22.8527 121.033C22.774 121.663 22.9455 122.286 23.3355 122.787C23.5494 123.062 23.815 123.282 24.1153 123.438C24.3623 123.566 24.6326 123.65 24.917 123.686L56.1938 127.586L56.1939 127.586C57.4941 127.748 58.684 126.822 58.8462 125.522ZM56.0582 107.567L41.8836 114.982L29.9643 104.313L56.0582 107.567ZM25.3636 120.102L27.2391 105.063L36.6084 113.451L25.3636 120.102ZM27.4821 121.611L38.4661 115.113L40.9118 117.303C40.9879 117.371 41.0705 117.428 41.157 117.473C41.4967 117.649 41.907 117.653 42.2557 117.471L45.165 115.948L54.2166 124.945L27.4821 121.611ZM47.3743 114.793L58.5163 108.963L56.6417 124.004L47.3743 114.793Z" fill="black"/>
<path d="M18.1665 118.97C18.2478 118.319 17.7853 117.725 17.1345 117.644L12.3964 117.053C11.745 116.972 11.1514 117.434 11.0701 118.085C11.0068 118.592 11.2733 119.065 11.7022 119.287C11.8237 119.35 11.9585 119.393 12.1023 119.411L16.8402 120.002C17.4916 120.083 18.0853 119.621 18.1665 118.97Z" fill="black"/>
<path d="M17.8648 106.386C17.9459 105.735 17.4836 105.141 16.8327 105.06L13.9079 104.695C13.2566 104.614 12.663 105.076 12.5817 105.727C12.5184 106.235 12.7849 106.707 13.2138 106.93C13.3353 106.993 13.47 107.036 13.6139 107.054L16.5386 107.418C17.1898 107.5 17.7836 107.038 17.8648 106.386Z" fill="black"/>
<path d="M10.6787 112.8C10.7598 112.148 10.2976 111.555 9.64655 111.474L7.47334 111.202C6.82199 111.121 6.22834 111.583 6.14708 112.235C6.08381 112.742 6.35025 113.214 6.77918 113.437C6.90067 113.5 7.03544 113.543 7.17926 113.561L9.35248 113.832C10.0038 113.913 10.5975 113.451 10.6787 112.8Z" fill="black"/>
</g>
<g clip-path="url(#clip6)">
<path d="M128.72 88.4678L133.84 67.6454C134.026 66.8889 133.906 66.1051 133.503 65.4386C133.099 64.7722 132.46 64.3026 131.704 64.1166L94.1411 54.8801C93.3845 54.6941 92.6008 54.8139 91.9343 55.2171C91.2678 55.6206 90.7983 56.2594 90.6123 57.0159L85.4922 77.8383C85.306 78.5949 85.4258 79.3786 85.8293 80.0452C86.0507 80.4109 86.3429 80.7172 86.6865 80.95C86.9693 81.1415 87.2866 81.2833 87.6282 81.3673L125.191 90.6038L125.191 90.6039C126.753 90.9877 128.336 90.0295 128.72 88.4678ZM127.895 66.1836L109.555 73.1907L96.5565 58.4777L127.895 66.1836ZM88.6861 77.0635L93.1274 59.0018L103.345 70.5676L88.6861 77.0635ZM91.052 79.2055L105.371 72.8605L108.038 75.8797C108.121 75.973 108.214 76.055 108.313 76.1221C108.701 76.3855 109.201 76.4491 109.652 76.2772L113.416 74.8373L123.16 87.1007L91.052 79.2055ZM116.275 73.7466L130.691 68.2371L126.25 86.3021L116.275 73.7466Z" fill="black"/>
<path d="M80.0763 74.6518C80.2687 73.8697 79.79 73.0797 79.0084 72.8875L73.3181 71.4882C72.5358 71.296 71.746 71.7742 71.5536 72.5562C71.4037 73.1656 71.6608 73.7795 72.1518 74.1121C72.2908 74.2063 72.4489 74.2781 72.6216 74.3205L78.3118 75.7196C79.0941 75.9123 79.8839 75.434 80.0763 74.6518Z" fill="black"/>
<path d="M81.512 59.2709C81.7042 58.4887 81.2258 57.699 80.444 57.5065L76.9315 56.6428C76.1492 56.4506 75.3595 56.9286 75.167 57.7108C75.0172 58.3201 75.2743 58.9342 75.7652 59.2667C75.9042 59.3609 76.0623 59.4327 76.235 59.4751L79.7476 60.3388C80.5297 60.5313 81.3196 60.0531 81.512 59.2709Z" fill="black"/>
<path d="M71.834 66.0582C72.0262 65.2759 71.548 64.4861 70.766 64.2938L68.1561 63.652C67.3738 63.4598 66.584 63.9379 66.3916 64.72C66.2418 65.3293 66.4988 65.9433 66.9898 66.2759C67.1288 66.3701 67.2869 66.4419 67.4596 66.4843L70.0696 67.1261C70.8519 67.3186 71.6417 66.8404 71.834 66.0582Z" fill="black"/>
</g>
<path d="M518.441 52.6338C516.16 44.7063 508.938 39.1488 500.489 39.1488C498.83 39.1488 497.2 39.3652 495.613 39.7954C491.731 31.3175 483.264 25.7894 473.77 25.7894C460.513 25.7894 449.724 36.5758 449.724 49.8363C449.724 50.8035 449.79 51.7654 449.905 52.7219C446.183 53.3071 442.892 55.1694 440.481 57.8519H380.255C372.888 57.8519 366.895 63.8449 366.895 71.2113V146.024C366.895 153.39 372.888 159.383 380.255 159.383H413.338L407.994 170.071H404.302C396.935 170.071 390.942 176.064 390.942 183.43V191.446H487.13V183.43C487.13 176.064 481.137 170.071 473.77 170.071H470.078L464.734 159.383H497.817C505.184 159.383 511.177 153.39 511.177 146.024V84.5707H516.52C525.362 84.5707 532.552 77.3807 532.552 68.5394C532.552 60.3501 526.377 53.5876 518.441 52.6338ZM465.685 84.5707C467.43 86.8792 468.427 89.6686 468.427 92.5863C468.427 99.9527 462.434 105.946 455.067 105.946C447.701 105.946 441.708 99.9527 441.708 92.5863C441.708 88.9606 443.143 85.5806 445.686 83.0798C447.73 84.0283 449.999 84.5707 452.395 84.5707H455.067H465.685ZM455.067 111.289C465.381 111.289 473.77 102.897 473.77 92.5863C473.77 89.7862 473.137 87.0555 471.959 84.5707H484.458V98.5152L479.25 99.8164L477.824 100.364L476.579 103.407L480.041 109.176L471.657 117.563L465.891 114.1L462.631 115.425L460.996 121.977H449.138L447.837 116.769L447.295 115.34L444.243 114.1L438.478 117.563L430.093 109.176L433.556 103.407L432.22 100.148L425.677 98.5152V86.6574L432.212 85.0249L433.556 81.7652L430.093 75.9966L432.204 73.8832H437.299C438.133 76.2291 439.488 78.3292 441.24 80.0285C438.125 83.4431 436.364 87.8571 436.364 92.5863C436.364 102.897 444.754 111.289 455.067 111.289V111.289ZM426.788 80.8728L420.333 82.4839V102.689L426.788 104.3L423.365 110.007L437.652 124.291L443.354 120.868L444.965 127.321H465.17L466.781 120.865L472.483 124.288L486.769 110.004L483.346 104.297L489.802 102.689V84.5707H495.145V143.352H382.927V73.8832H424.648L423.363 75.1657L426.788 80.8728ZM481.786 183.43V186.102H396.286V183.43C396.286 179.011 399.882 175.414 404.302 175.414H473.77C478.19 175.414 481.786 179.011 481.786 183.43ZM464.104 170.071H413.968L419.312 159.383H458.76L464.104 170.071ZM505.833 146.024C505.833 150.443 502.237 154.039 497.817 154.039H380.255C375.835 154.039 372.239 150.443 372.239 146.024V71.2113C372.239 66.792 375.835 63.1957 380.255 63.1957H437.299C436.706 64.8709 436.364 66.6638 436.364 68.5394H382.927C379.98 68.5394 377.583 70.9361 377.583 73.8832V143.352C377.583 146.299 379.98 148.696 382.927 148.696H495.145C498.092 148.696 500.489 146.299 500.489 143.352V84.5707H505.833V146.024ZM516.52 79.2269H452.395C446.501 79.2269 441.708 74.4336 441.708 68.5394C441.708 62.6453 446.501 57.8519 452.395 57.8519C458.29 57.8519 463.083 62.6453 463.083 68.5394H468.427C468.427 60.7028 462.77 54.1728 455.326 52.7887C455.171 51.8162 455.067 50.8302 455.067 49.8363C455.067 39.5255 463.457 31.1332 473.77 31.1332C481.866 31.1332 489.003 36.3059 491.53 43.9983L492.447 46.793L495.14 45.6147C496.842 44.872 498.643 44.4926 500.489 44.4926C506.089 44.4926 510.92 47.9232 512.889 52.9384C505.795 54.5896 500.489 60.9486 500.489 68.5394H505.833C505.833 62.6453 510.626 57.8519 516.52 57.8519C522.415 57.8519 527.208 62.6453 527.208 68.5394C527.208 74.4336 522.415 79.2269 516.52 79.2269V79.2269Z" fill="black"/>
<path d="M447.052 92.5863C447.052 97.0056 450.648 100.602 455.067 100.602C459.487 100.602 463.083 97.0056 463.083 92.5863C463.083 88.167 459.487 84.5707 455.067 84.5707C450.648 84.5707 447.052 88.167 447.052 92.5863ZM455.067 89.9144C456.539 89.9144 457.739 91.1114 457.739 92.5863C457.739 94.0612 456.539 95.2582 455.067 95.2582C453.595 95.2582 452.395 94.0612 452.395 92.5863C452.395 91.1114 453.595 89.9144 455.067 89.9144Z" fill="black"/>
<path d="M388.27 79.2269H393.614V84.5707H388.27V79.2269Z" fill="black"/>
<path d="M398.958 79.2269H404.302V84.5707H398.958V79.2269Z" fill="black"/>
<path d="M409.645 79.2269H414.989V84.5707H409.645V79.2269Z" fill="black"/>
<path d="M388.27 89.9144H414.989V95.2582H388.27V89.9144Z" fill="black"/>
<path d="M388.27 100.602H414.989V105.946H388.27V100.602Z" fill="black"/>
<path d="M388.27 111.289H414.989V116.633H388.27V111.289Z" fill="black"/>
<path d="M388.27 121.977H414.989V127.321H388.27V121.977Z" fill="black"/>
<path d="M388.27 132.664H436.364V138.008H388.27V132.664Z" fill="black"/>
<path d="M441.708 132.664H447.052V138.008H441.708V132.664Z" fill="black"/>
<path d="M452.395 132.664H457.739V138.008H452.395V132.664Z" fill="black"/>
<g clip-path="url(#clip7)">
<path d="M325.205 104.007C324.776 103.563 324.062 103.563 323.618 104.007C323.189 104.436 323.189 105.15 323.618 105.578L331.665 113.625H305.111C304.492 113.626 304 114.118 304 114.737C304 115.356 304.492 115.864 305.111 115.864H331.665L323.618 123.896C323.189 124.34 323.189 125.055 323.618 125.483C324.062 125.927 324.777 125.927 325.205 125.483L335.157 115.531C335.601 115.102 335.601 114.388 335.157 113.96L325.205 104.007Z" fill="#1E201D"/>
</g>
<g clip-path="url(#clip8)">
<path d="M563.205 106.007C562.776 105.563 562.062 105.563 561.618 106.007C561.189 106.436 561.189 107.15 561.618 107.578L569.665 115.625H543.111C542.492 115.626 542 116.118 542 116.737C542 117.356 542.492 117.864 543.111 117.864H569.665L561.618 125.896C561.189 126.34 561.189 127.055 561.618 127.483C562.062 127.927 562.777 127.927 563.205 127.483L573.157 117.531C573.601 117.102 573.601 116.388 573.157 115.96L563.205 106.007Z" fill="#1E201D"/>
</g>
<defs>
<clipPath id="clip0">
<rect width="97" height="97" fill="white" transform="translate(179.224 134.118)"/>
</clipPath>
<clipPath id="clip1">
<rect width="97.6061" height="97.6061" fill="white" transform="translate(218.031) rotate(36.0123)"/>
</clipPath>
<clipPath id="clip2">
<rect width="96.9277" height="96.9277" fill="white" transform="translate(132.993 59.1176) rotate(21.0216)"/>
</clipPath>
<clipPath id="clip3">
<rect width="96.9277" height="96.9277" fill="white" transform="translate(623.993 56.1176) rotate(21.0216)"/>
</clipPath>
<clipPath id="clip4">
<rect width="63.3995" height="63.3995" fill="white" transform="translate(76.0682 132.118) rotate(9.84907)"/>
</clipPath>
<clipPath id="clip5">
<rect width="53.1214" height="53.1214" fill="white" transform="translate(24.4552 76.7699) rotate(27.4106)"/>
</clipPath>
<clipPath id="clip6">
<rect width="65.1931" height="65.1931" fill="white" transform="translate(93.7891 24.1176) rotate(34.1168)"/>
</clipPath>
<clipPath id="clip7">
<rect width="31.49" height="31.49" fill="white" transform="translate(304 99)"/>
</clipPath>
<clipPath id="clip8">
<rect width="31.49" height="31.49" fill="white" transform="translate(542 101)"/>
</clipPath>
</defs>
</svg>
