<svg width="297" height="232" viewBox="0 0 297 232" fill="none" xmlns="http://www.w3.org/2000/svg">
<g clip-path="url(#clip0)">
<path d="M275.954 184.235L264.884 154.313C264.482 153.225 263.68 152.36 262.627 151.876C261.574 151.391 260.395 151.346 259.308 151.748L205.329 171.718C204.242 172.12 203.377 172.922 202.892 173.975C202.408 175.028 202.363 176.207 202.765 177.294L213.835 207.216C214.237 208.303 215.038 209.169 216.092 209.653C216.67 209.919 217.285 210.052 217.903 210.052C218.411 210.052 218.92 209.962 219.411 209.78L273.39 189.811H273.39C275.634 188.98 276.784 186.479 275.954 184.235ZM256.341 157.473L239.597 181.409L211.307 174.134L256.341 157.473ZM217.122 203.596L207.52 177.641L229.759 183.361L217.122 203.596ZM221.825 204.26L234.168 184.495L239.973 185.988C240.153 186.033 240.335 186.057 240.513 186.057C241.212 186.057 241.88 185.719 242.293 185.131L245.728 180.216L267.964 187.191L221.825 204.26ZM248.339 176.487L261.499 157.669L271.104 183.628L248.339 176.487Z" fill="#E7D530"/>
<path d="M204.504 207.81C204.088 206.686 202.84 206.113 201.716 206.528L193.539 209.553C192.415 209.969 191.841 211.217 192.257 212.341C192.581 213.217 193.41 213.759 194.292 213.759C194.542 213.759 194.797 213.715 195.045 213.623L203.222 210.598C204.346 210.183 204.92 208.934 204.504 207.81Z" fill="#E7D530"/>
<path d="M193.437 187.666C193.021 186.542 191.773 185.968 190.649 186.383L185.601 188.251C184.477 188.667 183.903 189.915 184.319 191.039C184.643 191.915 185.472 192.456 186.354 192.456C186.604 192.456 186.859 192.413 187.107 192.321L192.155 190.453C193.279 190.038 193.853 188.79 193.437 187.666Z" fill="#E7D530"/>
<path d="M187.18 204.103C186.764 202.979 185.515 202.405 184.392 202.821L180.641 204.208C179.517 204.624 178.943 205.873 179.359 206.996C179.683 207.872 180.512 208.414 181.394 208.414C181.644 208.414 181.899 208.37 182.147 208.278L185.897 206.891C187.022 206.475 187.595 205.227 187.18 204.103Z" fill="#E7D530"/>
</g>
<g clip-path="url(#clip1)">
<path d="M267.113 98.0214L275.806 67.117C276.122 65.9942 275.982 64.8156 275.411 63.7982C274.84 62.781 273.908 62.0467 272.785 61.731L217.035 46.0496C215.912 45.7337 214.733 45.8741 213.716 46.4446C212.699 47.0153 211.964 47.948 211.648 49.0708L202.956 79.9752C202.64 81.098 202.78 82.2766 203.351 83.2941C203.664 83.8524 204.086 84.3251 204.589 84.6905C205.002 84.9911 205.47 85.219 205.977 85.3615L261.728 101.043L261.728 101.043C264.045 101.695 266.461 100.339 267.113 98.0214ZM266.983 64.6353L239.193 74.2122L220.471 51.5524L266.983 64.6353ZM207.773 78.9738L215.314 52.1669L230.03 69.9796L207.773 78.9738ZM211.208 82.2964L232.948 73.5109L236.79 78.1609C236.91 78.3046 237.044 78.4319 237.189 78.5371C237.757 78.9505 238.502 79.0704 239.185 78.8357L244.889 76.8674L258.861 95.7005L211.208 82.2964ZM249.22 75.3768L271.065 67.8465L263.525 94.6586L249.22 75.3768Z" fill="#1E1E1E" fill-opacity="0.47"/>
<path d="M195.009 74.9388C195.336 73.778 194.659 72.5722 193.499 72.2458L185.053 69.8702C183.892 69.5438 182.687 70.2202 182.36 71.3809C182.106 72.2854 182.46 73.2168 183.178 73.7388C183.382 73.8866 183.615 74.0018 183.871 74.0738L192.316 76.4492C193.477 76.7762 194.683 76.0997 195.009 74.9388Z" fill="#1E1E1E" fill-opacity="0.47"/>
<path d="M197.919 51.9944C198.246 50.8333 197.569 49.628 196.409 49.3012L191.195 47.8349C190.034 47.5085 188.829 48.1848 188.502 49.3456C188.248 50.25 188.602 51.1816 189.32 51.7035C189.524 51.8513 189.757 51.9665 190.013 52.0386L195.226 53.5049C196.387 53.8317 197.593 53.1553 197.919 51.9944Z" fill="#1E1E1E" fill-opacity="0.47"/>
<path d="M183.101 61.6715C183.428 60.5104 182.751 59.3048 181.591 58.9784L177.717 57.8888C176.556 57.5624 175.351 58.2388 175.024 59.3994C174.77 60.3038 175.124 61.2354 175.842 61.7574C176.045 61.9052 176.278 62.0204 176.535 62.0924L180.408 63.182C181.569 63.5088 182.775 62.8324 183.101 61.6715Z" fill="#1E1E1E" fill-opacity="0.47"/>
<path d="M240.108 61.5521C241.065 61.7807 241.407 62.4699 241.132 63.6195L240.588 65.8955C240.556 66.0297 240.49 66.125 240.39 66.1813C240.292 66.2318 240.176 66.2411 240.041 66.209C239.913 66.1783 239.816 66.1182 239.751 66.0287C239.688 65.9333 239.672 65.8185 239.704 65.6843L240.246 63.4171C240.331 63.0611 240.328 62.789 240.237 62.6007C240.148 62.4067 239.966 62.2769 239.692 62.2113C239.371 62.1346 239.091 62.1849 238.851 62.362C238.612 62.5333 238.448 62.8086 238.357 63.188L237.866 65.2451C237.834 65.3793 237.768 65.4746 237.668 65.5309C237.57 65.5814 237.453 65.5907 237.319 65.5586C237.191 65.5279 237.094 65.4678 237.029 65.3782C236.965 65.2829 236.95 65.1681 236.982 65.0338L237.523 62.7666C237.608 62.4107 237.606 62.1386 237.515 61.9503C237.426 61.7562 237.244 61.6264 236.969 61.5609C236.648 61.4842 236.365 61.5338 236.12 61.7095C235.881 61.8808 235.717 62.1561 235.626 62.5355L235.135 64.5926C235.103 64.7268 235.037 64.8221 234.937 64.8784C234.838 64.9289 234.725 64.9388 234.597 64.9082C234.468 64.8775 234.369 64.8167 234.298 64.7257C234.234 64.6304 234.219 64.5156 234.251 64.3813L235.102 60.8186C235.132 60.6902 235.201 60.5985 235.306 60.5436C235.412 60.4886 235.526 60.4758 235.649 60.5051C235.771 60.5344 235.861 60.596 235.919 60.69C235.984 60.7795 236.001 60.8885 235.971 61.0169L235.893 61.3408C236.08 61.1263 236.303 60.9821 236.561 60.9081C236.819 60.8341 237.097 60.8327 237.395 60.9038C237.722 60.9818 237.974 61.1131 238.152 61.2975C238.336 61.4833 238.447 61.7288 238.485 62.034C238.673 61.8138 238.91 61.6607 239.196 61.5747C239.483 61.483 239.787 61.4754 240.108 61.5521ZM244.549 62.6131C245.115 62.7483 245.501 62.9917 245.707 63.3431C245.919 63.696 245.955 64.1642 245.816 64.7478L245.274 67.015C245.242 67.1492 245.179 67.2452 245.085 67.303C244.992 67.3549 244.879 67.3648 244.745 67.3327C244.616 67.302 244.523 67.2397 244.466 67.1457C244.408 67.0517 244.394 66.9405 244.425 66.8121L244.502 66.4883C244.333 66.7069 244.121 66.8568 243.867 66.938C243.621 67.0148 243.352 67.0184 243.06 66.9487C242.78 66.8817 242.536 66.765 242.329 66.5983C242.124 66.4258 241.978 66.2214 241.893 65.9851C241.813 65.7502 241.803 65.5072 241.863 65.2563C241.937 64.947 242.074 64.7237 242.273 64.5862C242.48 64.4444 242.776 64.3794 243.162 64.3914C243.554 64.4047 244.073 64.4888 244.721 64.6436L244.922 64.6917L244.983 64.4378C245.061 64.111 245.05 63.8586 244.951 63.6807C244.852 63.5027 244.653 63.3782 244.356 63.3071C244.151 63.2583 243.952 63.2385 243.759 63.2478C243.566 63.2571 243.349 63.2856 243.109 63.3332C242.931 63.3831 242.81 63.4004 242.745 63.385C242.658 63.3641 242.593 63.3146 242.55 63.2365C242.512 63.1597 242.506 63.0717 242.529 62.9725C242.55 62.885 242.592 62.8147 242.654 62.7617C242.723 62.7042 242.821 62.6566 242.947 62.6189C243.178 62.5568 243.438 62.5264 243.727 62.5278C244.019 62.5233 244.292 62.5517 244.549 62.6131ZM243.374 66.3298C243.695 66.4065 243.984 66.3613 244.24 66.1941C244.497 66.0212 244.667 65.7625 244.749 65.4182L244.803 65.1906L244.646 65.153C244.19 65.0442 243.835 64.981 243.581 64.9633C243.326 64.9456 243.134 64.9738 243.005 65.0479C242.878 65.1162 242.792 65.2408 242.749 65.4217C242.699 65.6318 242.734 65.822 242.853 65.9925C242.973 66.163 243.147 66.2754 243.374 66.3298ZM250.41 64.3094C250.466 64.2302 250.531 64.1778 250.605 64.1523C250.684 64.1282 250.762 64.1252 250.838 64.1433C250.949 64.1698 251.036 64.2308 251.1 64.3262C251.169 64.4229 251.191 64.5238 251.166 64.6289C251.152 64.6872 251.127 64.7399 251.092 64.7868L247.424 69.3701C247.37 69.4434 247.302 69.4921 247.223 69.5163C247.147 69.5476 247.072 69.5542 246.996 69.5361C246.891 69.511 246.803 69.453 246.732 69.362C246.667 69.2725 246.647 69.1752 246.672 69.0702C246.683 69.0235 246.712 68.9686 246.758 68.9055L247.669 67.7631L246.837 63.7704C246.825 63.7182 246.826 63.6629 246.84 63.6045C246.866 63.4936 246.935 63.4114 247.047 63.3578C247.158 63.3043 247.272 63.2915 247.389 63.3193C247.564 63.3612 247.67 63.4728 247.707 63.6544L248.344 66.9898L250.41 64.3094Z" fill="#1E1E1E" fill-opacity="0.47"/>
<path d="M234.327 78.661C234.461 78.6931 234.56 78.7568 234.623 78.8522C234.687 78.9476 234.703 79.0594 234.673 79.1878L233.38 84.5976C233.348 84.7318 233.282 84.8271 233.182 84.8834C233.088 84.9412 232.974 84.954 232.84 84.9219C232.706 84.8899 232.607 84.8261 232.543 84.7308C232.485 84.6368 232.473 84.5227 232.505 84.3884L232.588 84.0383C232.399 84.2644 232.164 84.4182 231.886 84.4997C231.609 84.5754 231.31 84.5749 230.989 84.4982C230.621 84.4103 230.314 84.2382 230.066 83.9817C229.825 83.7267 229.663 83.4104 229.581 83.0329C229.504 82.6567 229.518 82.2498 229.622 81.8122C229.728 81.3686 229.9 80.9994 230.137 80.7044C230.38 80.4108 230.666 80.2077 230.995 80.0951C231.324 79.9825 231.676 79.9708 232.049 80.0601C232.37 80.1368 232.633 80.2737 232.839 80.4709C233.052 80.6637 233.193 80.9009 233.261 81.1825L233.793 78.9591C233.822 78.8365 233.883 78.7493 233.975 78.6974C234.075 78.6411 234.192 78.6289 234.327 78.661ZM231.366 83.8481C231.745 83.9387 232.072 83.8778 232.344 83.6654C232.617 83.453 232.811 83.1046 232.927 82.6202C233.043 82.1358 233.027 81.7373 232.88 81.4245C232.738 81.113 232.475 80.9113 232.09 80.8193C231.705 80.7273 231.373 80.7868 231.094 80.9978C230.823 81.2044 230.63 81.547 230.515 82.0255C230.401 82.504 230.419 82.9062 230.569 83.2321C230.721 83.5521 230.987 83.7574 231.366 83.8481ZM237.361 81.3292C237.927 81.4644 238.313 81.7078 238.519 82.0593C238.731 82.4121 238.767 82.8804 238.628 83.4639L238.086 85.7311C238.054 85.8653 237.991 85.9613 237.897 86.0191C237.804 86.071 237.691 86.0809 237.557 86.0488C237.428 86.0181 237.335 85.9558 237.277 85.8618C237.22 85.7678 237.206 85.6566 237.237 85.5283L237.314 85.2044C237.145 85.423 236.933 85.5729 236.679 85.6542C236.433 85.731 236.163 85.7345 235.872 85.6648C235.592 85.5979 235.348 85.4811 235.141 85.3144C234.936 85.1419 234.79 84.9375 234.705 84.7012C234.625 84.4663 234.615 84.2234 234.675 83.9724C234.749 83.6631 234.886 83.4398 235.085 83.3023C235.292 83.1605 235.588 83.0955 235.974 83.1075C236.365 83.1209 236.885 83.2049 237.533 83.3597L237.734 83.4078L237.795 83.1539C237.873 82.8271 237.862 82.5747 237.763 82.3968C237.663 82.2188 237.465 82.0943 237.167 82.0232C236.963 81.9744 236.764 81.9546 236.571 81.9639C236.377 81.9732 236.161 82.0017 235.921 82.0493C235.743 82.0992 235.621 82.1165 235.557 82.1011C235.47 82.0802 235.404 82.0307 235.361 81.9526C235.324 81.8758 235.317 81.7879 235.341 81.6886C235.362 81.6011 235.403 81.5308 235.466 81.4778C235.535 81.4203 235.633 81.3727 235.759 81.335C235.989 81.2729 236.25 81.2426 236.539 81.2439C236.83 81.2394 237.104 81.2678 237.361 81.3292ZM236.186 85.0459C236.507 85.1226 236.795 85.0774 237.051 84.9102C237.309 84.7373 237.478 84.4786 237.561 84.1343L237.615 83.9067L237.457 83.8691C237.002 83.7603 236.647 83.6971 236.392 83.6794C236.137 83.6617 235.946 83.6899 235.817 83.764C235.69 83.8323 235.604 83.9569 235.561 84.1378C235.511 84.3479 235.546 84.5382 235.665 84.7086C235.785 84.8791 235.959 84.9915 236.186 85.0459ZM243.222 83.0255C243.278 82.9463 243.342 82.894 243.416 82.8684C243.496 82.8443 243.574 82.8413 243.65 82.8595C243.761 82.8859 243.848 82.9469 243.912 83.0423C243.981 83.139 244.003 83.24 243.978 83.345C243.964 83.4034 243.939 83.456 243.903 83.503L240.236 88.0862C240.181 88.1595 240.114 88.2083 240.034 88.2324C239.959 88.2637 239.883 88.2703 239.808 88.2522C239.703 88.2271 239.615 88.1691 239.544 88.0782C239.479 87.9886 239.459 87.8913 239.484 87.7863C239.495 87.7396 239.524 87.6847 239.57 87.6217L240.481 86.4792L239.649 82.4865C239.637 82.4343 239.638 82.379 239.652 82.3206C239.678 82.2097 239.747 82.1275 239.859 82.074C239.97 82.0204 240.084 82.0076 240.201 82.0355C240.376 82.0773 240.482 82.189 240.519 82.3705L241.156 85.7059L243.222 83.0255Z" fill="#1E1E1E" fill-opacity="0.47"/>
</g>
<g clip-path="url(#clip2)">
<path d="M205.254 140.538L205.654 108.66C205.669 107.501 205.231 106.407 204.422 105.577C203.614 104.748 202.531 104.283 201.372 104.269L143.866 103.547C142.707 103.532 141.613 103.97 140.784 104.778C139.954 105.587 139.49 106.67 139.475 107.828L139.075 139.706C139.06 140.865 139.498 141.959 140.306 142.789C140.75 143.244 141.276 143.589 141.853 143.81C142.327 143.992 142.834 144.091 143.357 144.097L200.863 144.819L200.864 144.819C203.254 144.849 205.224 142.928 205.254 140.538ZM196.553 108.545L172.355 124.87L148.575 107.943L196.553 108.545ZM143.439 137.508L143.786 109.857L162.479 123.164L143.439 137.508ZM147.587 139.813L166.185 125.801L171.064 129.275C171.216 129.382 171.378 129.47 171.543 129.534C172.195 129.784 172.94 129.708 173.535 129.307L178.501 125.954L196.742 140.431L147.587 139.813ZM182.273 123.412L201.293 110.577L200.948 138.233L182.273 123.412Z" fill="#E78830" fill-opacity="0.79"/>
<path d="M130.159 136.916C130.174 135.719 129.214 134.736 128.018 134.721L119.306 134.612C118.109 134.597 117.126 135.555 117.111 136.753C117.099 137.686 117.678 138.488 118.501 138.804C118.734 138.894 118.987 138.944 119.252 138.948L127.963 139.057C129.161 139.072 130.143 138.114 130.159 136.916Z" fill="#E78830" fill-opacity="0.79"/>
<path d="M127.056 114.159C127.071 112.962 126.112 111.979 124.916 111.964L119.538 111.897C118.34 111.882 117.358 112.84 117.343 114.037C117.331 114.97 117.91 115.773 118.733 116.089C118.966 116.179 119.219 116.229 119.484 116.233L124.861 116.3C126.058 116.315 127.041 115.357 127.056 114.159Z" fill="#E78830" fill-opacity="0.79"/>
<path d="M115.328 127.248C115.343 126.051 114.384 125.068 113.187 125.053L109.191 125.003C107.994 124.988 107.011 125.946 106.996 127.144C106.984 128.077 107.563 128.879 108.386 129.195C108.619 129.285 108.872 129.336 109.137 129.339L113.133 129.389C114.33 129.404 115.313 128.446 115.328 127.248Z" fill="#E78830" fill-opacity="0.79"/>
</g>
<g clip-path="url(#clip3)">
<path d="M132.756 175.206L128.973 154.699C128.836 153.954 128.416 153.307 127.792 152.878C127.168 152.448 126.414 152.287 125.669 152.425L88.6758 159.25C87.9307 159.387 87.2838 159.806 86.8541 160.43C86.4245 161.054 86.2635 161.809 86.401 162.554L90.1844 183.06C90.3217 183.805 90.7411 184.452 91.3653 184.882C91.7077 185.118 92.0892 185.272 92.4869 185.341C92.8141 185.398 93.1521 185.397 93.4886 185.335L130.482 178.51L130.482 178.51C132.02 178.226 133.04 176.744 132.756 175.206ZM123.118 155.78L109.66 169.322L92.2551 161.474L123.118 155.78ZM92.7062 181.097L89.4246 163.309L103.106 169.479L92.7062 181.097ZM95.6599 182.05L105.818 170.702L109.39 172.312C109.501 172.362 109.615 172.398 109.73 172.417C110.18 172.496 110.648 172.352 110.979 172.02L113.741 169.238L127.281 176.216L95.6599 182.05ZM115.839 167.129L126.418 156.483L129.701 174.273L115.839 167.129Z" fill="#A130E7" fill-opacity="0.51"/>
<path d="M84.1092 182.4C83.9672 181.63 83.2271 181.12 82.4573 181.262L76.8532 182.296C76.0829 182.439 75.5738 183.178 75.7158 183.948C75.8265 184.549 76.2998 184.99 76.868 185.089C77.0289 185.117 77.1978 185.117 77.3679 185.086L82.9717 184.052C83.7422 183.91 84.2513 183.17 84.1092 182.4Z" fill="#A130E7" fill-opacity="0.51"/>
<path d="M79.2344 168.19C79.0922 167.42 78.3524 166.911 77.5824 167.053L74.1231 167.691C73.3528 167.833 72.8437 168.573 72.9857 169.343C73.0964 169.943 73.5699 170.385 74.1379 170.483C74.2988 170.511 74.4677 170.512 74.6378 170.48L78.097 169.842C78.8673 169.7 79.3766 168.96 79.2344 168.19Z" fill="#A130E7" fill-opacity="0.51"/>
<path d="M73.3672 178.076C73.2249 177.305 72.4852 176.796 71.7152 176.938L69.1448 177.412C68.3744 177.555 67.8653 178.294 68.0074 179.064C68.1181 179.665 68.5914 180.106 69.1595 180.205C69.3205 180.233 69.4893 180.233 69.6594 180.202L72.2298 179.727C73.0002 179.585 73.5093 178.846 73.3672 178.076Z" fill="#A130E7" fill-opacity="0.51"/>
</g>
<g clip-path="url(#clip4)">
<path d="M58.8461 125.522L61.0082 108.184C61.0869 107.554 60.9154 106.931 60.5254 106.43C60.1355 105.929 59.574 105.61 58.9439 105.532L27.6672 101.631C27.0372 101.553 26.4144 101.724 25.9134 102.114C25.4125 102.504 25.0933 103.066 25.0147 103.695L22.8526 121.033C22.774 121.663 22.9455 122.286 23.3354 122.787C23.5493 123.062 23.815 123.282 24.1152 123.438C24.3622 123.566 24.6326 123.65 24.917 123.686L56.1938 127.586L56.1939 127.586C57.494 127.748 58.6839 126.822 58.8461 125.522ZM56.0581 107.567L41.8835 114.982L29.9642 104.313L56.0581 107.567ZM25.3635 120.102L27.2391 105.063L36.6084 113.451L25.3635 120.102ZM27.482 121.611L38.466 115.113L40.9118 117.303C40.9879 117.371 41.0705 117.428 41.157 117.473C41.4966 117.649 41.9069 117.653 42.2556 117.471L45.1649 115.948L54.2166 124.945L27.482 121.611ZM47.3743 114.793L58.5162 108.963L56.6416 124.004L47.3743 114.793Z" fill="#30C6E7" fill-opacity="0.25"/>
<path d="M18.1665 118.97C18.2478 118.319 17.7853 117.725 17.1345 117.644L12.3964 117.053C11.745 116.972 11.1514 117.434 11.0701 118.085C11.0068 118.592 11.2733 119.065 11.7022 119.287C11.8237 119.35 11.9585 119.393 12.1023 119.411L16.8402 120.002C17.4916 120.083 18.0853 119.621 18.1665 118.97Z" fill="#30C6E7" fill-opacity="0.25"/>
<path d="M17.8648 106.386C17.946 105.735 17.4837 105.141 16.8327 105.06L13.908 104.695C13.2566 104.614 12.663 105.076 12.5817 105.727C12.5184 106.235 12.785 106.707 13.2138 106.93C13.3353 106.993 13.4701 107.036 13.6139 107.054L16.5386 107.418C17.1898 107.5 17.7836 107.038 17.8648 106.386Z" fill="#30C6E7" fill-opacity="0.25"/>
<path d="M10.6787 112.8C10.7598 112.148 10.2976 111.555 9.64658 111.474L7.47337 111.202C6.82202 111.121 6.22837 111.583 6.14711 112.235C6.08384 112.742 6.35028 113.214 6.77921 113.437C6.9007 113.5 7.03547 113.543 7.17929 113.561L9.35251 113.832C10.0039 113.913 10.5975 113.451 10.6787 112.8Z" fill="#30C6E7" fill-opacity="0.25"/>
</g>
<g clip-path="url(#clip5)">
<path d="M128.72 88.4678L133.84 67.6454C134.026 66.8889 133.906 66.1051 133.503 65.4386C133.099 64.7722 132.46 64.3026 131.704 64.1166L94.1411 54.8801C93.3845 54.6941 92.6008 54.8139 91.9343 55.2171C91.2679 55.6206 90.7983 56.2594 90.6123 57.0159L85.4922 77.8383C85.3061 78.5949 85.4259 79.3786 85.8294 80.0452C86.0507 80.4109 86.3429 80.7172 86.6866 80.95C86.9693 81.1415 87.2866 81.2833 87.6283 81.3673L125.191 90.6038L125.191 90.6039C126.753 90.9877 128.336 90.0295 128.72 88.4678ZM127.895 66.1836L109.555 73.1907L96.5566 58.4777L127.895 66.1836ZM88.6861 77.0635L93.1275 59.0018L103.345 70.5676L88.6861 77.0635ZM91.052 79.2055L105.371 72.8605L108.038 75.8797C108.121 75.973 108.214 76.055 108.313 76.1221C108.702 76.3855 109.201 76.4491 109.652 76.2772L113.416 74.8373L123.16 87.1007L91.052 79.2055ZM116.275 73.7466L130.691 68.2371L126.25 86.3021L116.275 73.7466Z" fill="#306EE7" fill-opacity="0.65"/>
<path d="M80.0762 74.6518C80.2687 73.8697 79.79 73.0797 79.0084 72.8875L73.318 71.4882C72.5358 71.296 71.746 71.7742 71.5536 72.5562C71.4037 73.1656 71.6608 73.7795 72.1517 74.1121C72.2908 74.2063 72.4489 74.2781 72.6216 74.3205L78.3118 75.7196C79.094 75.9123 79.8839 75.434 80.0762 74.6518Z" fill="#306EE7" fill-opacity="0.65"/>
<path d="M81.5119 59.2709C81.7042 58.4887 81.2258 57.699 80.444 57.5065L76.9314 56.6428C76.1492 56.4506 75.3594 56.9286 75.167 57.7108C75.0172 58.3201 75.2743 58.9342 75.7651 59.2667C75.9042 59.3609 76.0623 59.4327 76.235 59.4751L79.7476 60.3388C80.5296 60.5313 81.3196 60.0531 81.5119 59.2709Z" fill="#306EE7" fill-opacity="0.65"/>
<path d="M71.834 66.0582C72.0262 65.276 71.5479 64.4861 70.766 64.2938L68.156 63.652C67.3738 63.4598 66.584 63.9379 66.3916 64.72C66.2418 65.3293 66.4988 65.9433 66.9897 66.2759C67.1288 66.3701 67.2869 66.4419 67.4596 66.4843L70.0696 67.1261C70.8518 67.3186 71.6416 66.8404 71.834 66.0582Z" fill="#306EE7" fill-opacity="0.65"/>
</g>
<defs>
<clipPath id="clip0">
<rect width="97" height="97" fill="white" transform="translate(179.224 134.118)"/>
</clipPath>
<clipPath id="clip1">
<rect width="97.6061" height="97.6061" fill="white" transform="translate(218.031) rotate(36.0123)"/>
</clipPath>
<clipPath id="clip2">
<rect width="96.9277" height="96.9277" fill="white" transform="translate(132.993 59.1176) rotate(21.0216)"/>
</clipPath>
<clipPath id="clip3">
<rect width="63.3995" height="63.3995" fill="white" transform="translate(76.0682 132.118) rotate(9.84907)"/>
</clipPath>
<clipPath id="clip4">
<rect width="53.1214" height="53.1214" fill="white" transform="translate(24.4552 76.7699) rotate(27.4106)"/>
</clipPath>
<clipPath id="clip5">
<rect width="65.1931" height="65.1931" fill="white" transform="translate(93.7891 24.1176) rotate(34.1168)"/>
</clipPath>
</defs>
</svg>
