<svg width="193" height="160" viewBox="0 0 193 160" fill="none" xmlns="http://www.w3.org/2000/svg">
<rect width="193" height="160" fill="white"/>
<path d="M168.081 15.0313L157.253 3H107.925V80H168.081V15.0313H168.081ZM112.738 75.1875V7.8125H155.092V17.3677H163.269V75.1875H112.738Z" fill="#FB4A59"/>
<path d="M154.854 47.2871H121.167V52.0996H154.854V47.2871Z" fill="#FB4A59"/>
<path d="M154.854 55.6536H121.167V60.4661H154.854V55.6536Z" fill="#FB4A59"/>
<path d="M154.854 22.6831H138.01V27.4956H154.854V22.6831Z" fill="#FB4A59"/>
<path d="M154.854 31.0496H138.01V35.8621H154.854V31.0496Z" fill="#FB4A59"/>
<path d="M154.854 39.4138H121.167V44.2263H154.854V39.4138Z" fill="#FB4A59"/>
<path d="M134.341 22.688H121.152V35.8767H134.341V22.688Z" fill="#FB4A59"/>
<path d="M126.75 42.7501L109.875 24H33V144H126.75V42.7501H126.75ZM40.5 136.5V31.5H106.508V46.3913H119.25V136.5H40.5Z" fill="#39AC37"/>
<path d="M106.136 93.019H53.6361V100.519H106.136V93.019Z" fill="#39AC37"/>
<path d="M106.136 106.058H53.6361V113.558H106.136V106.058Z" fill="#39AC37"/>
<path d="M106.136 54.6748H79.8861V62.1748H106.136V54.6748Z" fill="#39AC37"/>
<path d="M106.136 67.7139H79.8861V75.2139H106.136V67.7139Z" fill="#39AC37"/>
<path d="M106.136 80.7488H53.6361V88.2488H106.136V80.7488Z" fill="#39AC37"/>
<path d="M74.1676 54.6824H53.6138V75.2362H74.1676V54.6824Z" fill="#39AC37"/>
</svg>
