<svg width="193" height="160" viewBox="0 0 193 160" fill="none" xmlns="http://www.w3.org/2000/svg">
<rect width="193" height="160" fill="white"/>
<path d="M100.825 11.4551C98.8981 8.13377 94.1019 8.13378 92.1751 11.4551L10.3562 152.491C8.42243 155.824 10.8275 160 14.6811 160H178.319C182.173 160 184.578 155.824 182.644 152.491L100.825 11.4551ZM92.1748 44.2177C94.1014 40.8957 98.8986 40.8957 100.825 44.2177L154.097 136.07C156.03 139.404 153.625 143.579 149.771 143.579H43.2285C39.3752 143.579 36.9701 139.404 38.9033 136.07L92.1748 44.2177ZM88.2727 123.947C88.2727 121.186 90.5113 118.947 93.2727 118.947H99.7273C102.489 118.947 104.727 121.186 104.727 123.947V130.368C104.727 133.13 102.489 135.368 99.7273 135.368H93.2727C90.5113 135.368 88.2727 133.13 88.2727 130.368V123.947ZM88.2727 74.6842C88.2727 71.9228 90.5113 69.6842 93.2727 69.6842H99.7273C102.489 69.6842 104.727 71.9228 104.727 74.6842V97.5263C104.727 100.288 102.489 102.526 99.7273 102.526H93.2727C90.5113 102.526 88.2727 100.288 88.2727 97.5263V74.6842Z" fill="#FB4A59"/>
</svg>
