<svg width="193" height="160" viewBox="0 0 193 160" fill="none" xmlns="http://www.w3.org/2000/svg">
<rect width="193" height="160" fill="white"/>
<path fill-rule="evenodd" clip-rule="evenodd" d="M84 41V27H56V41H84ZM14 55V132H126V55H14ZM126 41C133.77 41 140 47.23 140 55V132C140 139.77 133.77 146 126 146H14C6.23 146 0 139.77 0 132L0.0699999 55C0.0699999 47.23 6.23 41 14 41H42V27C42 19.23 48.23 13 56 13H84C91.77 13 98 19.23 98 27V41H126Z" fill="#39AC37"/>
<path d="M164.309 98H93V110H164.309V128L188 104L164.309 80V98Z" fill="black"/>
<path d="M77.7916 79.3333L65.625 91.5H74.75C74.75 101.568 66.5679 109.75 56.5 109.75C53.4279 109.75 50.5079 108.99 47.9833 107.621L43.5425 112.062C47.2837 114.434 51.7245 115.833 56.5 115.833C69.9441 115.833 80.8333 104.944 80.8333 91.5H89.9583L77.7916 79.3333ZM38.25 91.5C38.25 81.432 46.432 73.25 56.5 73.25C59.572 73.25 62.492 74.0104 65.0166 75.3791L69.4575 70.9383C65.7162 68.5658 61.2754 67.1666 56.5 67.1666C43.0558 67.1666 32.1666 78.0558 32.1666 91.5H23.0416L35.2083 103.667L47.375 91.5H38.25Z" fill="black"/>
</svg>
