<svg width="193" height="160" viewBox="0 0 193 160" fill="none" xmlns="http://www.w3.org/2000/svg">
<g clip-path="url(#clip0)">
<rect width="193" height="160" fill="white"/>
<path d="M76.3158 123.444H60.5263V68.2222H76.3158V123.444ZM107.895 123.444H92.1053V44.5556H107.895V123.444ZM139.474 123.444H123.684V91.8889H139.474V123.444ZM159.211 140.011H40.7895V28.7778H159.211V140.011ZM159.211 13H40.7895C32.1053 13 25 20.1 25 28.7778V139.222C25 147.9 32.1053 155 40.7895 155H159.211C167.895 155 175 147.9 175 139.222V28.7778C175 20.1 167.895 13 159.211 13Z" fill="#39AC37"/>
<path d="M153.208 -0.416626V65.4167C136.52 63.7709 123.583 49.6496 123.583 32.5C123.583 15.3505 136.52 1.22921 153.208 -0.416626ZM159.89 -0.416626V29.1755H189.417C187.87 13.573 175.46 1.13046 159.89 -0.416626ZM159.89 35.8246V65.4167C175.493 63.8696 187.87 51.4271 189.417 35.8246H159.89Z" fill="#FB4A59"/>
</g>
<defs>
<clipPath id="clip0">
<rect width="193" height="160" fill="white"/>
</clipPath>
</defs>
</svg>
