<svg width="193" height="160" viewBox="0 0 193 160" fill="none" xmlns="http://www.w3.org/2000/svg">
<rect width="193" height="160" fill="white"/>
<path d="M152 16H144V0H128V16H64V0H48V16H40C31.12 16 24.08 23.2 24.08 32L24 144C24 152.8 31.12 160 40 160H152C160.8 160 168 152.8 168 144V32C168 23.2 160.8 16 152 16ZM152 144H40V64H152V144ZM152 48H40V32H152V48ZM96 88H136V128H96V88Z" fill="#39AC37"/>
<path d="M44.5 89C24.8862 89 9 104.886 9 124.5C9 144.114 24.8862 160 44.5 160C64.1138 160 80 144.114 80 124.5C80 104.886 64.1138 89 44.5 89ZM63.3594 142.916L40.0625 128.938V102.312H46.7188V125.609L66.6875 137.458L63.3594 142.916Z" fill="#FB4A59"/>
</svg>
